<svg width="1030px" height="522px" viewBox="0 0 1030 522" xmlns="http://www.w3.org/2000/svg" xmlns:xlink="http://www.w3.org/1999/xlink" style="display: block; letter-spacing: normal; word-spacing: normal; width: 1030px; height: 522px;"><g clip-path="url(#mainClip5357)"><g class="gojs-diagram" transform="matrix(1, 0, 0, 1, 216.875, 10.811879486937414)"><g transform="matrix(1, 0, 0, 1, 46.1455078125, 74.19489787398034)" data-class-name="Link" data-key="-5" data-from-key="-19" data-to-key="201"><path stroke="#424242" fill="none" stroke-width="2" stroke-linecap="butt" stroke-linejoin="miter" stroke-miterlimit="10" d="M 250.65461150891235,0 L 250.65461150891235,76.74016847672418 Q 250.65461150891235,81.74016847672418 245.65461150891235,81.74016847672418 L 5,81.74016847672418 Q 0,81.74016847672418 0,86.74016847672418 L 0,153.48033695344833" transform="matrix(1, 0, 0, 1, 1, 1)"/></g><g transform="matrix(1, 0, 0, 1, 24.75, 248.61034209502782)" data-class-name="Link" data-key="-6" data-from-key="-20" data-to-key="203"><path stroke="#424242" fill="none" stroke-width="2" stroke-linecap="butt" stroke-linejoin="miter" stroke-miterlimit="10" d="M 65.55433545790426,0 L 65.55433545790426,76.74017108868259 Q 65.55433545790426,81.74017108868259 60.55433545790426,81.74017108868259 L 5,81.74017108868259 Q 0,81.74017108868259 0,86.74017108868259 L 0,153.48034217736517" transform="matrix(1, 0, 0, 1, 1, 1)"/></g><g transform="matrix(1, 0, 0, 1, 216.1733514396422, 74.19489787398034)" data-class-name="Link" data-key="-7" data-from-key="-19" data-to-key="204"><path stroke="#424242" fill="none" stroke-width="2" stroke-linecap="butt" stroke-linejoin="miter" stroke-miterlimit="10" d="M 80.62676788177015,0 L 80.62676788177015,76.74016847672418 Q 80.62676788177015,81.74016847672418 75.62676788177015,81.74016847672418 L 5,81.74016847672418 Q 0,81.74016847672418 0,86.74016847672418 L 0,153.48033695344833" transform="matrix(1, 0, 0, 1, 1, 1)"/></g><g transform="matrix(1, 0, 0, 1, 184.75, 248.61033730894405)" data-class-name="Link" data-key="-8" data-from-key="-21" data-to-key="207"><path stroke="#424242" fill="none" stroke-width="2" stroke-linecap="butt" stroke-linejoin="miter" stroke-miterlimit="10" d="M 70.56849139050144,0 L 70.56849139050144,76.17529173815132 Q 70.56849139050144,81.17529173815132 65.56849139050144,81.17529173815132 L 5,81.17529173815132 Q 0,81.17529173815132 0,86.17529173815132 L 0,152.35058347630263" transform="matrix(1, 0, 0, 1, 1, 1)"/></g><g transform="matrix(1, 0, 0, 1, 254.75, 248.61033730894405)" data-class-name="Link" data-key="-9" data-from-key="-21" data-to-key="208"><path stroke="#424242" fill="none" stroke-width="2" stroke-linecap="butt" stroke-linejoin="miter" stroke-miterlimit="10" d="M 0.5684913905014355,0 L 0.5684913905014355,20 L 0,142.35058347630263 L 0,152.35058347630263" transform="matrix(1, 0, 0, 1, 1, 1)"/></g><g transform="matrix(1, 0, 0, 1, 255.31849139050144, 248.61033730894405)" data-class-name="Link" data-key="-10" data-from-key="-21" data-to-key="209"><path stroke="#424242" fill="none" stroke-width="2" stroke-linecap="butt" stroke-linejoin="miter" stroke-miterlimit="10" d="M 0,0 L 0,20 L 69.43150860949856,142.35058347630263 L 69.43150860949856,152.35058347630263" transform="matrix(1, 0, 0, 1, 1, 1)"/></g><g transform="matrix(1, 0, 0, 1, 296.80011932141235, 74.19489787398034)" data-class-name="Link" data-key="-11" data-from-key="-19" data-to-key="210"><path stroke="#424242" fill="none" stroke-width="2" stroke-linecap="butt" stroke-linejoin="miter" stroke-miterlimit="10" d="M 0,0 L 0,76.175286733151 Q 0,81.175286733151 5,81.175286733151 L 162.66132574334006,81.175286733151 Q 167.66132574334006,81.175286733151 167.66132574334006,86.175286733151 L 167.66132574334006,152.35057346630197" transform="matrix(1, 0, 0, 1, 1, 1)"/></g><g transform="matrix(1, 0, 0, 1, 419.94409212171985, 248.61034235961)" data-class-name="Link" data-key="-12" data-from-key="-22" data-to-key="212"><path stroke="#424242" fill="none" stroke-width="2" stroke-linecap="butt" stroke-linejoin="miter" stroke-miterlimit="10" d="M 0,0 L 0,92.9021633628675 Q 0,95.3051173020076 2.4029539391401045,95.3051173020076 L 2.4029539391401045,95.3051173020076 Q 4.805907878280152,95.3051173020076 4.805907878280152,97.7080712411477 L 4.805907878280152,180.6102346040152" transform="matrix(1, 0, 0, 1, 1, 1)"/></g><g transform="matrix(1, 0, 0, 1, 211.24560546875, 0)" data-class-name="Node" data-key="199"><g transform="matrix(1, 0, 0, 1, 7.0903127477475785, 0)"><g transform="matrix(1, 0, 0, 1, 0, 0)" data-item-index="0"><path stroke="transparent" fill="transparent" stroke-width="1" stroke-linecap="butt" stroke-linejoin="miter" stroke-miterlimit="10" d="M 30,39.99999999999999 L 1.5,40 C 1.499999999999993,19.01317950642985 14.25988462982238,2 29.999999999999996,2 z" transform="matrix(0.9063077870366497, -0.4226182617407, 0.4226182617407, 0.9063077870366497, 2.6644630243886738, 15.343010876609675)"/></g></g><g transform="matrix(1, 0, 0, 1, 10.8017578125, 54.259785382464344)"><path stroke="#919191" fill="white" stroke-width="2" stroke-linecap="butt" stroke-linejoin="miter" stroke-miterlimit="10" d="M 0,0 L 40,0 L 40,40 L 0,40 z" transform="matrix(1, 0, 0, 1, 1, 1)" data-port-id=""/><g transform="matrix(1, 0, 0, 1, 11, 11)"><g transform="matrix(1, 0, 0, 1, 0, 0)" data-item-index="0"><path stroke="none" fill="transparent" d="M 1,1 L 20,1 L 20,20 L 1,20 z" transform="matrix(1, 0, 0, 1, 0, 0)"/></g></g><text x="8" y="13.870898437500001" style="font: 16px serif" text-anchor="middle" fill="black" transform="matrix(1, 0, 0, 1, 13, 11.752734375)">31</text></g><text x="7.22998046875" y="10.558374023437501" style="font: 13px sans-serif" text-anchor="middle" fill="black" transform="matrix(1, 0, 0, 1, 24.57177734375, 96.25978538246434)">70</text><text x="31.8017578125" y="10.558374023437501" style="font: 13px sans-serif" text-anchor="middle" fill="black" transform="matrix(1, 0, 0, 1, 0, 110.33761741371434)">P123,F123</text></g><g transform="matrix(1, 0, 0, 1, 304.84912109375, 0)" data-class-name="Node" data-key="200"><g transform="matrix(1, 0, 0, 1, 24.12598815839221, 0)"><g transform="matrix(1, 0, 0, 1, 0, 0)" data-item-index="0"><path stroke="transparent" fill="transparent" stroke-width="1" stroke-linecap="butt" stroke-linejoin="miter" stroke-miterlimit="10" d="M 30,39.99999999999999 L 1.5,40 C 1.499999999999993,19.01317950642985 14.25988462982238,2 29.999999999999996,2 z" transform="matrix(0.9396926207859084, 0.3420201433256687, -0.3420201433256687, 0.9396926207859084, 16.32166211508254, 2.6408563820557873)"/></g></g><g transform="matrix(1, 0, 0, 1, 26.70263671875, 53.13002189531798)"><path stroke="#a1a1a1" fill="white" stroke-width="2" stroke-linecap="butt" stroke-linejoin="miter" stroke-miterlimit="10" d="M 20,0 C 31.04569499661587,0 40,8.954305003384128 40,20 C 40,31.04569499661587 31.04569499661587,40 20,40 C 8.954305003384128,40 0,31.04569499661587 0,20 C 0,8.954305003384128 8.954305003384128,0 20,0 z" transform="matrix(1, 0, 0, 1, 1, 1)" data-port-id=""/><g transform="matrix(1, 0, 0, 1, 11, 11)"><g transform="matrix(1, 0, 0, 1, 0, 0)" data-item-index="0"><path stroke="none" fill="transparent" d="M 1,1 L 20,1 L 20,20 L 1,20 z" transform="matrix(1, 0, 0, 1, 0, 0)"/></g></g><text x="8" y="13.870898437500001" style="font: 16px serif" text-anchor="middle" fill="black" transform="matrix(1, 0, 0, 1, 13, 11.752734375)">45</text></g><text x="7.22998046875" y="10.558374023437501" style="font: 13px sans-serif" text-anchor="middle" fill="black" transform="matrix(1, 0, 0, 1, 40.47265625, 95.13002189531798)">71</text><text x="47.70263671875" y="10.558374023437501" style="font: 13px sans-serif" text-anchor="middle" fill="black" transform="matrix(1, 0, 0, 1, 0, 109.20785392656798)">Q123,D612,I712</text></g><g transform="matrix(1, 0, 0, 1, 22.434062747747575, 174.41544944496434)" data-class-name="Node" data-key="201"><g transform="matrix(1, 0, 0, 1, 0, 0)"><g transform="matrix(1, 0, 0, 1, 0, 0)" data-item-index="0"><path stroke="transparent" fill="transparent" stroke-width="1" stroke-linecap="butt" stroke-linejoin="miter" stroke-miterlimit="10" d="M 30,39.99999999999999 L 1.5,40 C 1.499999999999993,19.01317950642985 14.25988462982238,2 29.999999999999996,2 z" transform="matrix(0.9063077870366497, -0.4226182617407, 0.4226182617407, 0.9063077870366497, 2.6644630243886738, 15.343010876609675)"/></g></g><g transform="matrix(1, 0, 0, 1, 3.7114450647524215, 54.259785382464344)"><path stroke="#919191" fill="white" stroke-width="2" stroke-linecap="butt" stroke-linejoin="miter" stroke-miterlimit="10" d="M 0,0 L 40,0 L 40,40 L 0,40 z" transform="matrix(1, 0, 0, 1, 1, 1)" data-port-id=""/><g transform="matrix(1, 0, 0, 1, 11, 11)"><g transform="matrix(1, 0, 0, 1, 0, 0)" data-item-index="0"><path stroke="none" fill="transparent" d="M 1,1 L 20,1 L 20,20 L 1,20 z" transform="matrix(1, 0, 0, 1, 0, 0)"/></g></g><text x="8" y="13.870898437500001" style="font: 16px serif" text-anchor="middle" fill="black" transform="matrix(1, 0, 0, 1, 13, 11.752734375)">32</text></g><text x="7.22998046875" y="10.558374023437501" style="font: 13px sans-serif" text-anchor="middle" fill="black" transform="matrix(1, 0, 0, 1, 17.48146459600242, 96.25978538246434)">72</text><text x="14.4599609375" y="10.558374023437501" style="font: 13px sans-serif" text-anchor="middle" fill="black" transform="matrix(1, 0, 0, 1, 10.251484127252422, 110.33761741371434)">L123</text></g><g transform="matrix(1, 0, 0, 1, 101.85695287725241, 174.41544944496434)" data-class-name="Node" data-key="202"><g transform="matrix(1, 0, 0, 1, 10.027843627142211, 0)"><g transform="matrix(1, 0, 0, 1, 0, 0)" data-item-index="0"><path stroke="transparent" fill="transparent" stroke-width="1" stroke-linecap="butt" stroke-linejoin="miter" stroke-miterlimit="10" d="M 30,39.99999999999999 L 1.5,40 C 1.499999999999993,19.01317950642985 14.25988462982238,2 29.999999999999996,2 z" transform="matrix(0.9396926207859084, 0.3420201433256687, -0.3420201433256687, 0.9396926207859084, 16.32166211508254, 2.6408563820557873)"/></g></g><g transform="matrix(1, 0, 0, 1, 12.6044921875, 53.13002189531798)"><path stroke="#a1a1a1" fill="white" stroke-width="2" stroke-linecap="butt" stroke-linejoin="miter" stroke-miterlimit="10" d="M 20,0 C 31.04569499661587,0 40,8.954305003384128 40,20 C 40,31.04569499661587 31.04569499661587,40 20,40 C 8.954305003384128,40 0,31.04569499661587 0,20 C 0,8.954305003384128 8.954305003384128,0 20,0 z" transform="matrix(1, 0, 0, 1, 1, 1)" data-port-id=""/><g transform="matrix(1, 0, 0, 1, 11, 11)"><g transform="matrix(1, 0, 0, 1, 0, 0)" data-item-index="0"><path stroke="none" fill="transparent" d="M 1,1 L 20,1 L 20,20 L 1,20 z" transform="matrix(1, 0, 0, 1, 0, 0)"/></g></g><text x="8" y="13.870898437500001" style="font: 16px serif" text-anchor="middle" fill="black" transform="matrix(1, 0, 0, 1, 13, 11.752734375)">45</text></g><text x="7.22998046875" y="10.558374023437501" style="font: 13px sans-serif" text-anchor="middle" fill="black" transform="matrix(1, 0, 0, 1, 26.37451171875, 95.13002189531798)">73</text><text x="33.6044921875" y="10.558374023437501" style="font: 13px sans-serif" text-anchor="middle" fill="black" transform="matrix(1, 0, 0, 1, 0, 109.20785392656798)">D510,M125</text></g><g transform="matrix(1, 0, 0, 1, 0, 348.8308988899287)" data-class-name="Node" data-key="203"><g transform="matrix(1, 0, 0, 1, 0, 0)"><g transform="matrix(1, 0, 0, 1, 0, 0)" data-item-index="0"><path stroke="transparent" fill="transparent" stroke-width="1" stroke-linecap="butt" stroke-linejoin="miter" stroke-miterlimit="10" d="M 30,39.99999999999999 L 1.5,40 C 1.499999999999993,19.01317950642985 14.25988462982238,2 29.999999999999996,2 z" transform="matrix(0.9063077870366497, -0.4226182617407, 0.4226182617407, 0.9063077870366497, 2.6644630243886738, 15.343010876609675)"/></g></g><g transform="matrix(1, 0, 0, 1, 0, 54.259785382464344)"><g transform="matrix(1, 0, 0, 1, 0, 0)" data-port-id=""><rect x="-0.75" y="-0.75" width="51.5" height="51.5" fill="white" transform="matrix(1, 0, 0, 1, 0.75, 0.75)"/><path stroke="#a1a1a1" fill="none" stroke-width="1.5" stroke-linecap="butt" stroke-linejoin="miter" stroke-miterlimit="10" d="M 6.427334213849771,9.34913744045006 L 43.37695480050516,9.34913744045006 L 43.37695480050516,41.054907890672 L 6.427334213849761,41.054907890672 z M 0.15287034064413668,0 L 0.15287034064413668,49.59107279319708 M 50,0.6224249223615096 L 50,49.99756109458075 M 0.34873470207277824,0.4027120628261962 L 8.800939496390628,0.18015381363510327 M 0,49.613608279270935 L 5.669696186973448,49.613608279270935 M 49.7919492354043,50 L 43.52179731320486,49.83354064029397 M 42.696140612129724,1.022563939970403 L 49.90741679973758,0.933645513226992" transform="matrix(1, 0, 0, 1, 0.75, 0.75)"/></g><g transform="matrix(1, 0, 0, 1, 15.75, 15.75)"><g transform="matrix(1, 0, 0, 1, 0, 0)" data-item-index="0"><path stroke="none" fill="transparent" d="M 1,1 L 20,1 L 20,20 L 1,20 z" transform="matrix(1, 0, 0, 1, 0, 0)"/></g></g><text x="8" y="13.870898437500001" style="font: 16px serif" text-anchor="middle" fill="black" transform="matrix(1, 0, 0, 1, 17.75, 16.502734375)">38</text></g><text x="7.22998046875" y="10.558374023437501" style="font: 13px sans-serif" text-anchor="middle" fill="black" transform="matrix(1, 0, 0, 1, 18.52001953125, 105.75978538246434)">74</text><text x="15.180419921875" y="10.558374023437501" style="font: 13px sans-serif" text-anchor="middle" fill="black" transform="matrix(1, 0, 0, 1, 10.569580078125, 119.83761741371434)">P123</text></g><g transform="matrix(1, 0, 0, 1, 192.4619063748898, 174.41544944496434)" data-class-name="Node" data-key="204"><g transform="matrix(1, 0, 0, 1, 0, 0)"><g transform="matrix(1, 0, 0, 1, 0, 0)" data-item-index="0"><path stroke="transparent" fill="transparent" stroke-width="1" stroke-linecap="butt" stroke-linejoin="miter" stroke-miterlimit="10" d="M 30,39.99999999999999 L 1.5,40 C 1.499999999999993,19.01317950642985 14.25988462982238,2 29.999999999999996,2 z" transform="matrix(0.9063077870366497, -0.4226182617407, 0.4226182617407, 0.9063077870366497, 2.6644630243886738, 15.343010876609675)"/></g></g><g transform="matrix(1, 0, 0, 1, 3.7114450647524215, 54.259785382464344)"><path stroke="#919191" fill="white" stroke-width="2" stroke-linecap="butt" stroke-linejoin="miter" stroke-miterlimit="10" d="M 0,0 L 40,0 L 40,40 L 0,40 z" transform="matrix(1, 0, 0, 1, 1, 1)" data-port-id=""/><g transform="matrix(1, 0, 0, 1, 1, 1)"><g transform="matrix(1, 0, 0, 1, 0, 0)" data-item-index="0"><path stroke="none" fill="#000000" d="M 38,0 L 40,0 L 40,2 L 2,40 L 0,40 L 0,38 z" transform="matrix(1, 0, 0, 1, 0, 0)"/></g></g><text x="8" y="13.870898437500001" style="font: 16px serif" text-anchor="middle" fill="black" transform="matrix(1, 0, 0, 1, 13, 11.752734375)">40</text></g><text x="7.22998046875" y="10.558374023437501" style="font: 13px sans-serif" text-anchor="middle" fill="black" transform="matrix(1, 0, 0, 1, 17.48146459600242, 96.25978538246434)">75</text><text x="15.180419921875" y="10.558374023437501" style="font: 13px sans-serif" text-anchor="middle" fill="black" transform="matrix(1, 0, 0, 1, 9.531025142877422, 110.33761741371434)">E123</text></g><g transform="matrix(1, 0, 0, 1, 73.583251953125, 348.8308988899287)" data-class-name="Node" data-key="205"><g transform="matrix(1, 0, 0, 1, 8.590099486517211, 0)"><g transform="matrix(1, 0, 0, 1, 0, 0)" data-item-index="0"><path stroke="transparent" fill="transparent" stroke-width="1" stroke-linecap="butt" stroke-linejoin="miter" stroke-miterlimit="10" d="M 30,39.99999999999999 L 1.5,40 C 1.499999999999993,19.01317950642985 14.25988462982238,2 29.999999999999996,2 z" transform="matrix(0.9396926207859084, 0.3420201433256687, -0.3420201433256687, 0.9396926207859084, 16.32166211508254, 2.6408563820557873)"/></g></g><g transform="matrix(1, 0, 0, 1, 11.166748046875, 53.13002189531798)"><path stroke="#a1a1a1" fill="white" stroke-width="2" stroke-linecap="butt" stroke-linejoin="miter" stroke-miterlimit="10" d="M 20,0 C 31.04569499661587,0 40,8.954305003384128 40,20 C 40,31.04569499661587 31.04569499661587,40 20,40 C 8.954305003384128,40 0,31.04569499661587 0,20 C 0,8.954305003384128 8.954305003384128,0 20,0 z" transform="matrix(1, 0, 0, 1, 1, 1)" data-port-id=""/><g transform="matrix(1, 0, 0, 1, 11, 11)"><g transform="matrix(1, 0, 0, 1, 0, 0)" data-item-index="0"><path stroke="none" fill="transparent" d="M 1,1 L 20,1 L 20,20 L 1,20 z" transform="matrix(1, 0, 0, 1, 0, 0)"/></g></g><text x="8" y="13.870898437500001" style="font: 16px serif" text-anchor="middle" fill="black" transform="matrix(1, 0, 0, 1, 13, 11.752734375)">18</text></g><text x="7.22998046875" y="10.558374023437501" style="font: 13px sans-serif" text-anchor="middle" fill="black" transform="matrix(1, 0, 0, 1, 24.936767578125, 95.13002189531798)">76</text><text x="32.166748046875" y="10.558374023437501" style="font: 13px sans-serif" text-anchor="middle" fill="black" transform="matrix(1, 0, 0, 1, 0, 109.20785392656798)">E123,K123</text></g><g transform="matrix(1, 0, 0, 1, 271.88479650439467, 174.41544944496434)" data-class-name="Node" data-key="206"><g transform="matrix(1, 0, 0, 1, 0, 0)"><g transform="matrix(1, 0, 0, 1, 0, 0)" data-item-index="0"><path stroke="transparent" fill="transparent" stroke-width="1" stroke-linecap="butt" stroke-linejoin="miter" stroke-miterlimit="10" d="M 30,39.99999999999999 L 1.5,40 C 1.499999999999993,19.01317950642985 14.25988462982238,2 29.999999999999996,2 z" transform="matrix(0.9396926207859084, 0.3420201433256687, -0.3420201433256687, 0.9396926207859084, 16.32166211508254, 2.6408563820557873)"/></g></g><g transform="matrix(1, 0, 0, 1, 2.576648560357789, 53.13002189531798)"><path stroke="#a1a1a1" fill="white" stroke-width="2" stroke-linecap="butt" stroke-linejoin="miter" stroke-miterlimit="10" d="M 20,0 C 31.04569499661587,0 40,8.954305003384128 40,20 C 40,31.04569499661587 31.04569499661587,40 20,40 C 8.954305003384128,40 0,31.04569499661587 0,20 C 0,8.954305003384128 8.954305003384128,0 20,0 z" transform="matrix(1, 0, 0, 1, 1, 1)" data-port-id=""/><g transform="matrix(1, 0, 0, 1, 11, 11)"><g transform="matrix(1, 0, 0, 1, 0, 0)" data-item-index="0"><path stroke="none" fill="transparent" d="M 1,1 L 20,1 L 20,20 L 1,20 z" transform="matrix(1, 0, 0, 1, 0, 0)"/></g></g><text x="8" y="13.870898437500001" style="font: 16px serif" text-anchor="middle" fill="black" transform="matrix(1, 0, 0, 1, 13, 11.752734375)">36</text></g><text x="7.22998046875" y="10.558374023437501" style="font: 13px sans-serif" text-anchor="middle" fill="black" transform="matrix(1, 0, 0, 1, 16.34666809160779, 95.13002189531798)">77</text><text x="15.180419921875" y="10.558374023437501" style="font: 13px sans-serif" text-anchor="middle" fill="black" transform="matrix(1, 0, 0, 1, 8.396228638482789, 109.20785392656798)">Y123</text></g><g transform="matrix(1, 0, 0, 1, 162.1733514396422, 348.8308988899287)" data-class-name="Node" data-key="207"><g transform="matrix(1, 0, 0, 1, 0, 0)"><g transform="matrix(1, 0, 0, 1, 0, 0)" data-item-index="0"><path stroke="transparent" fill="transparent" stroke-width="1" stroke-linecap="butt" stroke-linejoin="miter" stroke-miterlimit="10" d="M 30,39.99999999999999 L 1.5,40 C 1.499999999999993,19.01317950642985 14.25988462982238,2 29.999999999999996,2 z" transform="matrix(0.9396926207859084, 0.3420201433256687, -0.3420201433256687, 0.9396926207859084, 16.32166211508254, 2.6408563820557873)"/></g></g><g transform="matrix(1, 0, 0, 1, 2.576648560357789, 53.13002189531798)"><path stroke="#a1a1a1" fill="white" stroke-width="2" stroke-linecap="butt" stroke-linejoin="miter" stroke-miterlimit="10" d="M 20,0 C 31.04569499661587,0 40,8.954305003384128 40,20 C 40,31.04569499661587 31.04569499661587,40 20,40 C 8.954305003384128,40 0,31.04569499661587 0,20 C 0,8.954305003384128 8.954305003384128,0 20,0 z" transform="matrix(1, 0, 0, 1, 1, 1)" data-port-id=""/><g transform="matrix(1, 0, 0, 1, 11, 11)"><g transform="matrix(1, 0, 0, 1, 0, 0)" data-item-index="0"><path stroke="none" fill="transparent" d="M 1,1 L 20,1 L 20,20 L 1,20 z" transform="matrix(1, 0, 0, 1, 0, 0)"/></g></g><text x="8" y="13.870898437500001" style="font: 16px serif" text-anchor="middle" fill="black" transform="matrix(1, 0, 0, 1, 13, 11.752734375)">21</text></g><text x="7.22998046875" y="10.558374023437501" style="font: 13px sans-serif" text-anchor="middle" fill="black" transform="matrix(1, 0, 0, 1, 16.34666809160779, 95.13002189531798)">78</text><text x="15.180419921875" y="10.558374023437501" style="font: 13px sans-serif" text-anchor="middle" fill="black" transform="matrix(1, 0, 0, 1, 8.396228638482789, 109.20785392656798)">V123</text></g><g transform="matrix(1, 0, 0, 1, 232.1733514396422, 348.8308988899287)" data-class-name="Node" data-key="208"><g transform="matrix(1, 0, 0, 1, 0, 0)"><g transform="matrix(1, 0, 0, 1, 0, 0)" data-item-index="0"><path stroke="transparent" fill="transparent" stroke-width="1" stroke-linecap="butt" stroke-linejoin="miter" stroke-miterlimit="10" d="M 30,39.99999999999999 L 1.5,40 C 1.499999999999993,19.01317950642985 14.25988462982238,2 29.999999999999996,2 z" transform="matrix(0.9396926207859084, 0.3420201433256687, -0.3420201433256687, 0.9396926207859084, 16.32166211508254, 2.6408563820557873)"/></g></g><g transform="matrix(1, 0, 0, 1, 2.576648560357789, 53.13002189531798)"><path stroke="#a1a1a1" fill="white" stroke-width="2" stroke-linecap="butt" stroke-linejoin="miter" stroke-miterlimit="10" d="M 20,0 C 31.04569499661587,0 40,8.954305003384128 40,20 C 40,31.04569499661587 31.04569499661587,40 20,40 C 8.954305003384128,40 0,31.04569499661587 0,20 C 0,8.954305003384128 8.954305003384128,0 20,0 z" transform="matrix(1, 0, 0, 1, 1, 1)" data-port-id=""/><g transform="matrix(1, 0, 0, 1, 11, 11)"><g transform="matrix(1, 0, 0, 1, 0, 0)" data-item-index="0"><path stroke="none" fill="transparent" d="M 1,1 L 20,1 L 20,20 L 1,20 z" transform="matrix(1, 0, 0, 1, 0, 0)"/></g></g><text x="8" y="13.870898437500001" style="font: 16px serif" text-anchor="middle" fill="black" transform="matrix(1, 0, 0, 1, 13, 11.752734375)">24</text></g><text x="7.22998046875" y="10.558374023437501" style="font: 13px sans-serif" text-anchor="middle" fill="black" transform="matrix(1, 0, 0, 1, 16.34666809160779, 95.13002189531798)">79</text><text x="16.97998046875" y="10.558374023437501" style="font: 13px sans-serif" text-anchor="middle" fill="black" transform="matrix(1, 0, 0, 1, 6.596668091607789, 109.20785392656798)">W236</text></g><g transform="matrix(1, 0, 0, 1, 302.1733514396422, 348.8308988899287)" data-class-name="Node" data-key="209"><g transform="matrix(1, 0, 0, 1, 0, 0)"><g transform="matrix(1, 0, 0, 1, 0, 0)" data-item-index="0"><path stroke="transparent" fill="transparent" stroke-width="1" stroke-linecap="butt" stroke-linejoin="miter" stroke-miterlimit="10" d="M 30,39.99999999999999 L 1.5,40 C 1.499999999999993,19.01317950642985 14.25988462982238,2 29.999999999999996,2 z" transform="matrix(0.9396926207859084, 0.3420201433256687, -0.3420201433256687, 0.9396926207859084, 16.32166211508254, 2.6408563820557873)"/></g></g><g transform="matrix(1, 0, 0, 1, 2.576648560357789, 53.13002189531798)"><path stroke="#a1a1a1" fill="white" stroke-width="2" stroke-linecap="butt" stroke-linejoin="miter" stroke-miterlimit="10" d="M 20,0 C 31.04569499661587,0 40,8.954305003384128 40,20 C 40,31.04569499661587 31.04569499661587,40 20,40 C 8.954305003384128,40 0,31.04569499661587 0,20 C 0,8.954305003384128 8.954305003384128,0 20,0 z" transform="matrix(1, 0, 0, 1, 1, 1)" data-port-id=""/><g transform="matrix(1, 0, 0, 1, 11, 11)"><g transform="matrix(1, 0, 0, 1, 0, 0)" data-item-index="0"><path stroke="none" fill="transparent" d="M 1,1 L 20,1 L 20,20 L 1,20 z" transform="matrix(1, 0, 0, 1, 0, 0)"/></g></g><text x="8" y="13.870898437500001" style="font: 16px serif" text-anchor="middle" fill="black" transform="matrix(1, 0, 0, 1, 13, 11.752734375)">15</text></g><text x="7.22998046875" y="10.558374023437501" style="font: 13px sans-serif" text-anchor="middle" fill="black" transform="matrix(1, 0, 0, 1, 16.34666809160779, 95.13002189531798)">80</text><text x="15.180419921875" y="10.558374023437501" style="font: 13px sans-serif" text-anchor="middle" fill="black" transform="matrix(1, 0, 0, 1, 8.396228638482789, 109.20785392656798)">E123</text></g><g transform="matrix(1, 0, 0, 1, 431.1364938928774, 174.41544944496434)" data-class-name="Node" data-key="210"><g transform="matrix(1, 0, 0, 1, 10.748302611517211, 0)"><g transform="matrix(1, 0, 0, 1, 0, 0)" data-item-index="0"><path stroke="transparent" fill="transparent" stroke-width="1" stroke-linecap="butt" stroke-linejoin="miter" stroke-miterlimit="10" d="M 30,39.99999999999999 L 1.5,40 C 1.499999999999993,19.01317950642985 14.25988462982238,2 29.999999999999996,2 z" transform="matrix(0.9396926207859084, 0.3420201433256687, -0.3420201433256687, 0.9396926207859084, 16.32166211508254, 2.6408563820557873)"/></g></g><g transform="matrix(1, 0, 0, 1, 13.324951171875, 53.13002189531798)"><path stroke="#a1a1a1" fill="white" stroke-width="2" stroke-linecap="butt" stroke-linejoin="miter" stroke-miterlimit="10" d="M 20,0 C 31.04569499661587,0 40,8.954305003384128 40,20 C 40,31.04569499661587 31.04569499661587,40 20,40 C 8.954305003384128,40 0,31.04569499661587 0,20 C 0,8.954305003384128 8.954305003384128,0 20,0 z" transform="matrix(1, 0, 0, 1, 1, 1)" data-port-id=""/><g transform="matrix(1, 0, 0, 1, 11, 11)"><g transform="matrix(1, 0, 0, 1, 0, 0)" data-item-index="0"><path stroke="none" fill="transparent" d="M 1,1 L 20,1 L 20,20 L 1,20 z" transform="matrix(1, 0, 0, 1, 0, 0)"/></g></g><text x="8" y="13.870898437500001" style="font: 16px serif" text-anchor="middle" fill="black" transform="matrix(1, 0, 0, 1, 13, 11.752734375)">43</text></g><text x="7.22998046875" y="10.558374023437501" style="font: 13px sans-serif" text-anchor="middle" fill="black" transform="matrix(1, 0, 0, 1, 27.094970703125, 95.13002189531798)">81</text><text x="34.324951171875" y="10.558374023437501" style="font: 13px sans-serif" text-anchor="middle" fill="black" transform="matrix(1, 0, 0, 1, 0, 109.20785392656798)">R12X,R12X</text></g><g transform="matrix(1, 0, 0, 1, 351.7136037633726, 174.41544944496434)" data-class-name="Node" data-key="211"><g transform="matrix(1, 0, 0, 1, 0, 0)"><g transform="matrix(1, 0, 0, 1, 0, 0)" data-item-index="0"><path stroke="transparent" fill="transparent" stroke-width="1" stroke-linecap="butt" stroke-linejoin="miter" stroke-miterlimit="10" d="M 30,39.99999999999999 L 1.5,40 C 1.499999999999993,19.01317950642985 14.25988462982238,2 29.999999999999996,2 z" transform="matrix(0.9063077870366497, -0.4226182617407, 0.4226182617407, 0.9063077870366497, 2.6644630243886738, 15.343010876609675)"/></g></g><g transform="matrix(1, 0, 0, 1, 3.7114450647524215, 54.259785382464344)"><path stroke="#919191" fill="white" stroke-width="2" stroke-linecap="butt" stroke-linejoin="miter" stroke-miterlimit="10" d="M 0,0 L 40,0 L 40,40 L 0,40 z" transform="matrix(1, 0, 0, 1, 1, 1)" data-port-id=""/><g transform="matrix(1, 0, 0, 1, 11, 11)"><g transform="matrix(1, 0, 0, 1, 0, 0)" data-item-index="0"><path stroke="none" fill="transparent" d="M 1,1 L 20,1 L 20,20 L 1,20 z" transform="matrix(1, 0, 0, 1, 0, 0)"/></g></g><text x="8" y="13.870898437500001" style="font: 16px serif" text-anchor="middle" fill="black" transform="matrix(1, 0, 0, 1, 13, 11.752734375)">37</text></g><text x="7.22998046875" y="10.558374023437501" style="font: 13px sans-serif" text-anchor="middle" fill="black" transform="matrix(1, 0, 0, 1, 17.48146459600242, 96.25978538246434)">82</text><text x="15.180419921875" y="10.558374023437501" style="font: 13px sans-serif" text-anchor="middle" fill="black" transform="matrix(1, 0, 0, 1, 9.531025142877422, 110.33761741371434)">V345</text></g><g transform="matrix(1, 0, 0, 1, 368.6828324028714, 348.8308988899287)" data-class-name="Node" data-key="212"><g transform="matrix(1, 0, 0, 1, 0, 0)"><g transform="matrix(1, 0, 0, 1, 64.71144506475243, 0)" data-item-index="0"><path stroke="transparent" fill="transparent" stroke-width="1" stroke-linecap="butt" stroke-linejoin="miter" stroke-miterlimit="10" d="M 30,39.99999999999999 L 1.5,40 C 1.499999999999993,19.01317950642985 14.25988462982238,2 29.999999999999996,2 z" transform="matrix(0.9063077870366497, -0.4226182617407, 0.4226182617407, 0.9063077870366497, 2.6644630243886738, 15.343010876609675)"/></g><g transform="matrix(1, 0, 0, 1, 0, 27.129892691232172)"><path stroke="#000000" fill="none" stroke-width="1" stroke-linecap="butt" stroke-linejoin="miter" stroke-miterlimit="10" d="M 19.426906265177273,2.6927153154020207 C 20.097480269342878,2.692715315402021 20.641087906750847,3.295500170936856 20.641087906750847,4.039072973103031 L 20.64108790675085,35.79426468763906 L 28.28071879553182,27.3202895900689 C 28.755485194797842,26.793840050921947 29.525233609367532,26.793840058682722 30.000000000000007,27.320289607403076 C 30.47476638563,27.84673915057638 30.4747663843662,28.70028249505899 29.999999997177223,29.226732036503602 L 20.28654686741137,39.99759329498161 C 19.8129791686717,40.524042838915264 19.044202489377177,40.525120357454654 18.569436094427928,39.99999999999999 C 18.568711703079085,39.99919877934055 18.567988225339572,39.99839654369358 18.567265662943182,39.99759329498161 L 8.853812530354544,29.22673203337353 C 8.37904613972207,28.70028248465318 8.379046146720945,27.84673912921585 8.85381254598697,27.3202895900689 C 9.328578940250518,26.793840056468994 10.098327344940948,26.793840057870376 10.573093737645516,27.32028959319897 L 18.212724623603695,35.79426468763906 L 18.212724623603695,4.039072973103031 C 18.212724623603698,3.2955001709368563 18.756332261011668,2.6927153154020216 19.426906265177276,2.6927153154020207 z" transform="matrix(0.9063077870366497, -0.4226182617407, 0.4226182617407, 0.9063077870366497, 2.6644630243886738, 15.343010876609675)"/></g></g><g transform="matrix(1, 0, 0, 1, 36.06716759712863, 81.38967807369652)"><path stroke="#919191" fill="white" stroke-width="2" stroke-linecap="butt" stroke-linejoin="miter" stroke-miterlimit="10" d="M 0,0 L 40,0 L 40,40 L 0,40 z" transform="matrix(1, 0, 0, 1, 1, 1)" data-port-id=""/><g transform="matrix(1, 0, 0, 1, 1, 1)"><g transform="matrix(1, 0, 0, 1, 0, 0)" data-item-index="0"><path stroke="none" fill="#000000" d="M 38,0 L 40,0 L 40,2 L 2,40 L 0,40 L 0,38 z" transform="matrix(1, 0, 0, 1, 0, 0)"/></g><g transform="matrix(1, 0, 0, 1, 0, 0)" data-item-index="1"><path stroke="none" fill="transparent" d="M 1,1 L 20,1 L 20,20 L 1,20 z" transform="matrix(1, 0, 0, 1, 0, 0)"/></g></g><text x="8" y="13.870898437500001" style="font: 16px serif" text-anchor="middle" fill="black" transform="matrix(1, 0, 0, 1, 13, 11.752734375)">50</text></g><text x="7.22998046875" y="10.558374023437501" style="font: 13px sans-serif" text-anchor="middle" fill="black" transform="matrix(1, 0, 0, 1, 49.83718712837863, 123.38967807369652)">82</text><text x="15.180419921875" y="10.558374023437501" style="font: 13px sans-serif" text-anchor="middle" fill="black" transform="matrix(1, 0, 0, 1, 41.88674767525363, 137.4675101049465)">K123<rect x="505.25" y="348.8308988899287" width="1" height="1" fill="rgb(0,0,0)" fill-opacity="0.3" transform="matrix(1, 0, 0, 1, 41.88674767525363, 137.4675101049465)"/><rect x="535.25" y="348.8308988899287" width="1" height="1" fill="rgb(0,0,0)" fill-opacity="0.3" transform="matrix(1, 0, 0, 1, 41.88674767525363, 137.4675101049465)"/><rect x="565.25" y="348.8308988899287" width="1" height="1" fill="rgb(0,0,0)" fill-opacity="0.3" transform="matrix(1, 0, 0, 1, 41.88674767525363, 137.4675101049465)"/><rect x="595.25" y="348.8308988899287" width="1" height="1" fill="rgb(0,0,0)" fill-opacity="0.3" transform="matrix(1, 0, 0, 1, 41.88674767525363, 137.4675101049465)"/><rect x="297.30011932141235" y="74.19489787398034" width="1" height="1" fill="rgb(0,0,0)" fill-opacity="0.3" transform="matrix(1, 0, 0, 1, 41.88674767525363, 137.4675101049465)"/><rect x="90.80433545790426" y="248.61034209502782" width="1" height="1" fill="rgb(0,0,0)" fill-opacity="0.3" transform="matrix(1, 0, 0, 1, 41.88674767525363, 137.4675101049465)"/><rect x="255.81849139050144" y="248.61033730894405" width="1" height="1" fill="rgb(0,0,0)" fill-opacity="0.3" transform="matrix(1, 0, 0, 1, 41.88674767525363, 137.4675101049465)"/><rect x="420.44409212171985" y="248.61034235961" width="1" height="1" fill="rgb(0,0,0)" fill-opacity="0.3" transform="matrix(1, 0, 0, 1, 41.88674767525363, 137.4675101049465)"/></text></g><g transform="matrix(1, 0, 0, 1, 262.79736328125, 73.09666864055124)" data-class-name="Link" data-key="-1" data-from-key="199" data-to-key="200"><path stroke="#000000" fill="none" stroke-width="2.5" stroke-linecap="butt" stroke-linejoin="miter" stroke-miterlimit="10" d="M 0,0.6964584668581892 L 67.50551208032465,0" transform="matrix(1, 0, 0, 1, 1.25, 1.25)"/></g><g transform="matrix(1, 0, 0, 1, 66.8955078125, 247.56408754921281)" data-class-name="Link" data-key="-2" data-from-key="202" data-to-key="201"><path stroke="#000000" fill="none" stroke-width="2.5" stroke-linecap="butt" stroke-linejoin="miter" stroke-miterlimit="10" d="M 46.31765529080852,0 L 0,0.5925090916300348" transform="matrix(1, 0, 0, 1, 1.25, 1.25)"/></g><g transform="matrix(1, 0, 0, 1, 236.9233514396422, 247.5984875737365)" data-class-name="Link" data-key="-3" data-from-key="206" data-to-key="204"><path stroke="#000000" fill="none" stroke-width="2.5" stroke-linecap="butt" stroke-linejoin="miter" stroke-miterlimit="10" d="M 36.29027990171841,0 L 0,0.5236994704151527" transform="matrix(1, 0, 0, 1, 1.25, 1.25)"/></g><g transform="matrix(1, 0, 0, 1, 395.925048828125, 247.31191432917734)" data-class-name="Link" data-key="-4" data-from-key="211" data-to-key="210"><g transform="matrix(1, 0, 0, 1, 0, 0)"><path stroke="transparent" fill="none" stroke-width="3" stroke-linecap="butt" stroke-linejoin="miter" stroke-miterlimit="10" d="M 0,0.5968560608652922 L 47.038086587189696,0" transform="matrix(1, 0, 0, 1, 1.5, 1.5)"/><path stroke="#000000" fill="none" stroke-width="1.3" stroke-linecap="round" stroke-linejoin="miter" stroke-miterlimit="10" d="M 0,0 M 4,0 L 4.1,0" transform="matrix(0.9999195070585193, -0.012687765912399425, 0.012687765912399425, 0.9999195070585193, 0.19185759306145211, 1.463402483314399)"/><path stroke="#000000" fill="none" stroke-width="1.3" stroke-linecap="round" stroke-linejoin="miter" stroke-miterlimit="10" d="M 0,0 M 4,0 L 4.1,0" transform="matrix(0.9999195070585193, -0.012687765912400676, 0.012687765912400676, 0.9999195070585193, 4.291527572237383, 1.411382661672991)"/><path stroke="#000000" fill="none" stroke-width="1.3" stroke-linecap="round" stroke-linejoin="miter" stroke-miterlimit="10" d="M 0,0 M 4,0 L 4.1,0" transform="matrix(0.9999195070585193, -0.012687765912401927, 0.012687765912401927, 0.9999195070585193, 8.391197551413317, 1.3593628400315776)"/><path stroke="#000000" fill="none" stroke-width="1.3" stroke-linecap="round" stroke-linejoin="miter" stroke-miterlimit="10" d="M 0,0 M 4,0 L 4.1,0" transform="matrix(0.9999195070585193, -0.012687765912403177, 0.012687765912403177, 0.9999195070585193, 12.490867530589249, 1.3073430183901595)"/><path stroke="#000000" fill="none" stroke-width="1.3" stroke-linecap="round" stroke-linejoin="miter" stroke-miterlimit="10" d="M 0,0 M 4,0 L 4.1,0" transform="matrix(0.9999195070585192, -0.012687765912404428, 0.012687765912404428, 0.9999195070585192, 16.59053750976518, 1.2553231967487362)"/><path stroke="#000000" fill="none" stroke-width="1.3" stroke-linecap="round" stroke-linejoin="miter" stroke-miterlimit="10" d="M 0,0 M 4,0 L 4.1,0" transform="matrix(0.9999195070585191, -0.012687765912405679, 0.012687765912405679, 0.9999195070585191, 20.69020748894111, 1.203303375107307)"/><path stroke="#000000" fill="none" stroke-width="1.3" stroke-linecap="round" stroke-linejoin="miter" stroke-miterlimit="10" d="M 0,0 M 4,0 L 4.1,0" transform="matrix(0.9999195070585191, -0.01268776591240693, 0.01268776591240693, 0.9999195070585191, 24.78987746811704, 1.1512835534658734)"/><path stroke="#000000" fill="none" stroke-width="1.3" stroke-linecap="round" stroke-linejoin="miter" stroke-miterlimit="10" d="M 0,0 M 4,0 L 4.1,0" transform="matrix(0.9999195070585191, -0.01268776591240818, 0.01268776591240818, 0.9999195070585191, 28.889547447292973, 1.0992637318244345)"/><path stroke="#000000" fill="none" stroke-width="1.3" stroke-linecap="round" stroke-linejoin="miter" stroke-miterlimit="10" d="M 0,0 M 4,0 L 4.1,0" transform="matrix(0.9999195070585191, -0.012687765912409431, 0.012687765912409431, 0.9999195070585191, 32.9892174264689, 1.0472439101829905)"/><path stroke="#000000" fill="none" stroke-width="1.3" stroke-linecap="round" stroke-linejoin="miter" stroke-miterlimit="10" d="M 0,0 M 4,0 L 4.1,0" transform="matrix(0.9999195070585191, -0.01268776591241068, 0.01268776591241068, 0.9999195070585191, 37.08888740564483, 0.9952240885415414)"/><path stroke="#000000" fill="none" stroke-width="1.3" stroke-linecap="round" stroke-linejoin="miter" stroke-miterlimit="10" d="M 0,0 M 4,0 L 4.1,0" transform="matrix(0.9999195070585191, -0.01268776591241193, 0.01268776591241193, 0.9999195070585191, 41.18855738482077, 0.943204266900087)"/></g></g></g><g transform="matrix(1, 0, 0, 1, 216.875, 10.811879486937414)"/></g><clipPath id="mainClip5357"><rect x="0" y="0" width="1030px" height="522px"/></clipPath></svg>