<?xml version="1.0" standalone="no"?>
<!DOCTYPE svg PUBLIC "-//W3C//DTD SVG 20010904//EN"
 "http://www.w3.org/TR/2001/REC-SVG-20010904/DTD/svg10.dtd">
<svg version="1.0" xmlns="http://www.w3.org/2000/svg"
 width="161.000000pt" height="750.000000pt" viewBox="0 0 161.000000 750.000000"
 preserveAspectRatio="xMidYMid meet">

<g transform="translate(0.000000,750.000000) scale(0.100000,-0.100000)"
fill="#000000" stroke="none">
<path d="M2 3748 l3 -3753 2 3748 3 3747 795 0 795 0 3 -3747 2 -3748 3 3753
2 3752 -805 0 -805 0 2 -3752z"/>
<path d="M1183 7365 c-40 -45 -73 -86 -73 -90 0 -12 142 -166 151 -163 4 2 39
39 77 83 l70 80 -39 45 c-21 25 -56 64 -76 87 l-38 41 -72 -83z m111 18 c18
-21 47 -54 64 -74 l31 -35 -67 -73 -67 -73 -62 70 c-35 39 -63 73 -63 77 0 7
120 145 126 145 2 0 19 -17 38 -37z"/>
<path d="M639 7407 c-48 -31 -82 -101 -74 -152 17 -113 127 -174 224 -123 60
31 83 66 89 130 3 44 0 59 -20 88 -54 80 -148 104 -219 57z m123 3 c45 -13 93
-66 102 -114 9 -49 -22 -119 -66 -146 -26 -16 -45 -20 -86 -17 -45 3 -59 9
-89 40 -31 30 -37 44 -40 89 -5 68 20 111 80 138 49 23 51 23 99 10z"/>
<path d="M70 7250 l0 -160 180 0 180 0 0 160 0 160 -180 0 -180 0 0 -160z
m340 5 l0 -145 -165 0 -165 0 0 138 c0 76 3 142 7 145 3 4 78 7 165 7 l158 0
0 -145z"/>
<path d="M90 7039 c0 -27 3 -31 11 -19 8 11 12 12 16 3 8 -22 23 -14 23 12 0
25 -20 37 -20 13 0 -8 -7 -5 -15 6 -14 19 -15 18 -15 -15z"/>
<path d="M154 7056 c-9 -24 4 -48 23 -44 12 2 18 12 18 28 0 29 -32 41 -41 16z
m36 -22 c0 -8 -7 -14 -15 -14 -15 0 -21 21 -9 33 10 9 24 -2 24 -19z"/>
<path d="M217 7064 c-4 -4 -7 -19 -7 -33 0 -21 2 -23 10 -11 9 13 11 13 19 0
8 -12 11 -11 17 5 7 18 8 18 15 -1 6 -15 8 -12 8 14 1 34 -13 43 -23 15 -6
-15 -8 -15 -19 1 -7 9 -16 14 -20 10z"/>
<path d="M290 7041 c0 -25 4 -31 21 -31 16 0 20 5 17 27 -2 17 -10 29 -20 31
-14 3 -18 -3 -18 -27z"/>
<path d="M347 7063 c-10 -10 -8 -53 2 -53 5 0 12 6 14 13 4 10 6 10 6 0 1 -7
5 -13 9 -13 5 0 7 14 4 30 -4 28 -20 39 -35 23z"/>
<path d="M400 7040 c0 -22 5 -30 18 -30 13 0 14 2 4 9 -14 9 -13 32 3 43 6 4
2 8 -7 8 -13 0 -18 -8 -18 -30z"/>
<path d="M591 7038 c0 -28 2 -30 9 -13 12 28 12 45 0 45 -5 0 -10 -15 -9 -32z"/>
<path d="M627 7050 c-19 -23 -22 -40 -7 -40 6 0 10 6 10 13 0 8 4 7 10 -3 7
-11 10 -7 10 18 0 38 0 38 -23 12z"/>
<path d="M671 7043 c-1 -27 3 -33 19 -33 16 0 20 6 19 33 -2 30 -2 30 -6 5 -2
-16 -8 -28 -13 -28 -5 0 -11 12 -13 28 -4 25 -4 25 -6 -5z"/>
<path d="M728 7040 c-3 -16 -1 -30 4 -30 4 0 8 14 8 30 0 17 -2 30 -4 30 -2 0
-6 -13 -8 -30z"/>
<path d="M760 7040 c0 -22 5 -30 18 -30 13 0 14 2 4 9 -14 9 -13 32 3 43 6 4
2 8 -7 8 -13 0 -18 -8 -18 -30z"/>
<path d="M807 7063 c-10 -10 -8 -53 2 -53 5 0 12 6 14 13 4 10 6 10 6 0 1 -7
5 -13 9 -13 5 0 7 14 4 30 -4 28 -20 39 -35 23z"/>
<path d="M90 6930 c0 -23 4 -30 20 -30 25 0 36 25 20 45 -21 25 -40 18 -40
-15z m35 0 c0 -7 -6 -15 -12 -17 -8 -3 -13 4 -13 17 0 13 5 20 13 18 6 -3 12
-11 12 -18z"/>
<path d="M150 6930 c0 -22 5 -30 18 -30 9 0 13 4 7 8 -5 4 -10 14 -10 22 0 8
5 18 10 22 6 4 2 8 -7 8 -13 0 -18 -8 -18 -30z"/>
<path d="M195 6950 c-4 -6 -2 -17 5 -24 8 -11 8 -15 -2 -19 -9 -4 -8 -6 3 -6
8 -1 20 4 27 11 8 8 12 9 12 1 0 -7 18 -11 44 -11 49 0 68 20 42 46 -19 19
-46 8 -46 -18 0 -11 -7 -20 -15 -20 -8 0 -15 9 -15 20 0 11 5 20 12 20 6 0 8
3 5 7 -4 3 -16 -2 -26 -11 -11 -10 -25 -15 -31 -11 -9 6 -9 10 1 16 10 6 10 9
2 9 -6 0 -15 -5 -18 -10z m125 -20 c0 -11 -4 -20 -9 -20 -14 0 -23 18 -16 30
10 17 25 11 25 -10z"/>
<path d="M351 6929 c0 -26 2 -30 8 -15 7 18 8 18 14 2 6 -15 10 -16 22 -6 11
9 15 10 15 1 0 -20 44 -8 48 13 5 25 -13 40 -35 31 -26 -11 -46 -12 -60 -1
-10 6 -13 0 -12 -25z m94 1 c0 -7 -6 -15 -12 -17 -8 -3 -13 4 -13 17 0 13 5
20 13 18 6 -3 12 -11 12 -18z"/>
<path d="M474 6945 c-9 -23 3 -45 23 -44 17 1 17 2 1 6 -10 2 -18 11 -18 18 0
8 8 19 18 24 16 10 16 10 -1 11 -10 0 -20 -7 -23 -15z"/>
<path d="M522 6930 c0 -19 2 -27 5 -17 2 9 2 25 0 35 -3 9 -5 1 -5 -18z"/>
<path d="M547 6954 c-4 -4 -7 -18 -7 -31 0 -20 5 -24 23 -21 16 2 22 10 22 28
0 24 -23 39 -38 24z m25 -36 c-9 -9 -12 -7 -12 12 0 19 3 21 12 12 9 -9 9 -15
0 -24z"/>
<path d="M604 6946 c-9 -24 4 -48 23 -44 12 2 18 12 18 28 0 29 -32 41 -41 16z
m36 -22 c0 -8 -7 -14 -15 -14 -15 0 -21 21 -9 33 10 9 24 -2 24 -19z"/>
<path d="M70 6620 l0 -160 180 0 180 0 0 65 c0 44 4 67 13 69 6 3 149 7 317
10 l305 5 25 -52 c34 -71 67 -92 140 -92 63 0 95 16 134 69 29 39 29 133 0
173 -24 33 -97 73 -134 73 -50 0 -113 -42 -138 -91 l-23 -46 -311 -6 c-171 -3
-315 -4 -320 -1 -4 3 -8 36 -8 75 l0 69 -180 0 -180 0 0 -160z m350 0 l0 -140
-165 0 -165 0 0 140 0 140 165 0 165 0 0 -140z m887 120 c52 -31 78 -97 61
-157 -43 -162 -278 -131 -278 37 0 110 122 178 217 120z"/>
<path d="M411 6413 c1 -34 2 -35 9 -13 l8 25 7 -22 c4 -13 11 -23 15 -23 5 0
12 10 16 23 l8 22 7 -25 c6 -22 7 -20 8 13 1 41 -15 50 -28 15 l-8 -22 -12 22
c-18 33 -31 26 -30 -15z"/>
<path d="M511 6419 c-6 -18 -11 -32 -11 -33 0 -1 14 -1 30 -1 17 0 30 0 30 1
0 12 -24 64 -30 64 -4 0 -13 -14 -19 -31z"/>
<path d="M568 6415 c2 -19 8 -35 12 -35 4 0 10 16 12 35 3 27 0 35 -12 35 -12
0 -15 -8 -12 -35z"/>
<path d="M617 6444 c-11 -11 -8 -64 3 -64 6 0 10 8 10 17 0 15 2 14 15 -3 14
-18 14 -17 12 16 -2 33 -23 51 -40 34z m28 -14 c3 -5 1 -10 -4 -10 -6 0 -11 5
-11 10 0 6 2 10 4 10 3 0 8 -4 11 -10z"/>
<path d="M677 6443 c-11 -10 -8 -63 3 -63 6 0 10 16 10 35 0 36 -2 40 -13 28z"/>
<path d="M701 6413 c1 -34 2 -35 9 -13 l8 25 7 -22 c4 -13 11 -23 15 -23 5 0
12 10 16 23 l8 22 7 -25 c6 -22 7 -20 8 13 1 41 -15 50 -28 15 l-8 -22 -12 22
c-18 33 -31 26 -30 -15z"/>
<path d="M802 6434 c-15 -27 -3 -54 24 -54 28 0 42 25 27 49 -14 23 -40 25
-51 5z m38 -25 c0 -20 -15 -26 -25 -9 -9 15 3 43 15 35 5 -3 10 -15 10 -26z"/>
<path d="M871 6413 c1 -33 2 -35 8 -13 l7 25 8 -22 c12 -36 26 -27 25 15 -1
32 -2 34 -8 12 l-7 -25 -8 23 c-12 35 -26 26 -25 -15z"/>
<path d="M943 6415 c0 -22 2 -30 4 -17 2 12 2 30 0 40 -3 9 -5 -1 -4 -23z"/>
<path d="M972 6434 c-15 -27 -3 -54 24 -54 28 0 42 25 27 49 -14 23 -40 25
-51 5z m38 -25 c0 -20 -15 -26 -25 -9 -9 15 3 43 15 35 5 -3 10 -15 10 -26z"/>
<path d="M80 6140 l0 -160 185 0 185 0 0 64 c0 42 4 66 13 70 10 5 10 7 0 12
-9 4 -13 32 -13 90 l0 84 -185 0 -185 0 0 -160z m350 0 l0 -140 -165 0 -165 0
0 140 0 140 165 0 165 0 0 -140z"/>
<path d="M1150 6268 c-33 -17 -51 -35 -67 -68 -12 -25 -27 -51 -33 -57 -8 -9
-8 -17 0 -25 6 -7 21 -33 33 -57 29 -60 64 -83 129 -89 44 -3 59 0 87 20 58
39 76 72 76 136 0 70 -28 115 -89 143 -54 24 -82 24 -136 -3z m147 -18 c52
-31 78 -97 61 -157 -44 -163 -278 -131 -278 37 0 110 122 178 217 120z"/>
<path d="M586 6131 c-4 -5 -2 -12 3 -15 5 -4 12 -2 15 3 4 5 2 12 -3 15 -5 4
-12 2 -15 -3z"/>
<path d="M630 6125 c0 -8 5 -15 10 -15 6 0 10 7 10 15 0 8 -4 15 -10 15 -5 0
-10 -7 -10 -15z"/>
<path d="M680 6124 c0 -8 5 -12 10 -9 6 3 10 10 10 16 0 5 -4 9 -10 9 -5 0
-10 -7 -10 -16z"/>
<path d="M720 6130 c0 -5 5 -10 10 -10 6 0 10 5 10 10 0 6 -4 10 -10 10 -5 0
-10 -4 -10 -10z"/>
<path d="M770 6130 c0 -5 5 -10 10 -10 6 0 10 5 10 10 0 6 -4 10 -10 10 -5 0
-10 -4 -10 -10z"/>
<path d="M810 6130 c0 -5 7 -10 15 -10 8 0 15 5 15 10 0 6 -7 10 -15 10 -8 0
-15 -4 -15 -10z"/>
<path d="M860 6130 c0 -5 5 -10 10 -10 6 0 10 5 10 10 0 6 -4 10 -10 10 -5 0
-10 -4 -10 -10z"/>
<path d="M910 6130 c0 -5 5 -10 10 -10 6 0 10 5 10 10 0 6 -4 10 -10 10 -5 0
-10 -4 -10 -10z"/>
<path d="M950 6130 c0 -5 5 -10 10 -10 6 0 10 5 10 10 0 6 -4 10 -10 10 -5 0
-10 -4 -10 -10z"/>
<path d="M1000 6130 c0 -5 5 -10 10 -10 6 0 10 5 10 10 0 6 -4 10 -10 10 -5 0
-10 -4 -10 -10z"/>
<path d="M490 6120 c0 -5 5 -10 10 -10 6 0 10 5 10 10 0 6 -4 10 -10 10 -5 0
-10 -4 -10 -10z"/>
<path d="M540 6120 c0 -5 5 -10 10 -10 6 0 10 5 10 10 0 6 -4 10 -10 10 -5 0
-10 -4 -10 -10z"/>
<path d="M667 5919 c-27 -25 -19 -64 13 -64 30 0 39 34 18 63 -12 18 -14 18
-31 1z m30 -25 c8 -21 -13 -42 -28 -27 -13 13 -5 43 11 43 6 0 13 -7 17 -16z"/>
<path d="M482 5889 c2 -29 7 -34 28 -34 20 0 26 6 28 28 2 15 -1 27 -7 27 -6
0 -11 -11 -11 -25 0 -14 -4 -25 -10 -25 -5 0 -10 11 -10 24 0 14 -5 28 -11 31
-7 5 -9 -5 -7 -26z"/>
<path d="M551 5883 c1 -33 2 -35 8 -13 l7 25 12 -22 c19 -34 32 -28 32 15 -1
33 -2 35 -14 19 -12 -15 -14 -16 -20 -2 -11 28 -26 15 -25 -22z"/>
<path d="M627 5913 c-11 -10 -8 -63 3 -63 6 0 10 16 10 35 0 36 -2 40 -13 28z"/>
<path d="M727 5914 c-11 -11 -8 -64 3 -64 6 0 10 10 11 23 l0 22 11 -22 c16
-34 28 -28 27 15 -1 23 -3 29 -6 14 l-4 -22 -17 20 c-10 12 -21 18 -25 14z"/>
<path d="M822 5888 c-2 -36 0 -38 28 -38 28 0 30 3 30 36 0 21 -4 33 -10 29
-5 -3 -10 -17 -10 -31 0 -37 -28 -30 -33 9 -4 31 -4 31 -5 -5z"/>
<path d="M897 5914 c-4 -4 -7 -20 -7 -36 0 -23 4 -28 26 -28 23 0 25 3 22 32
-3 31 -25 48 -41 32z m33 -44 c0 -5 -4 -10 -10 -10 -5 0 -10 5 -10 10 0 6 5
10 10 10 6 0 10 -4 10 -10z"/>
<path d="M957 5914 c-11 -11 -8 -64 3 -64 6 0 10 8 10 17 0 15 2 14 15 -3 14
-18 14 -17 12 16 -2 33 -23 51 -40 34z m28 -14 c3 -5 1 -10 -4 -10 -6 0 -11 5
-11 10 0 6 2 10 4 10 3 0 8 -4 11 -10z"/>
<path d="M1017 5913 c-4 -3 -7 -19 -7 -35 0 -22 4 -28 23 -28 18 0 19 2 7 10
-12 8 -13 11 -1 19 11 7 11 9 0 14 -12 4 -11 7 1 16 13 9 13 11 -1 11 -9 0
-19 -3 -22 -7z"/>
<path d="M80 5620 l0 -160 180 0 180 0 0 60 0 60 156 0 c137 0 155 -2 144 -15
-7 -8 -9 -22 -6 -32 6 -14 11 -12 39 15 l33 32 134 0 135 -1 20 -42 c38 -80
154 -111 224 -60 95 71 95 195 0 266 -42 30 -106 33 -159 5 -42 -21 -68 -56
-84 -110 -5 -16 -19 -18 -117 -18 l-111 0 17 26 c12 19 14 29 6 37 -8 8 -20 1
-42 -26 l-30 -37 -180 0 -179 0 0 80 0 80 -180 0 -180 0 0 -160z m350 0 l0
-140 -165 0 -165 0 0 140 0 140 165 0 165 0 0 -140z m877 110 c46 -28 67 -65
67 -120 0 -82 -59 -140 -143 -140 -140 0 -194 183 -76 260 39 26 110 26 152 0z"/>
<path d="M951 5396 c-26 -28 -25 -59 3 -64 29 -6 48 25 33 52 -6 11 -10 24 -9
29 4 12 -4 8 -27 -17z m26 -40 c-4 -9 -11 -16 -17 -16 -11 0 -14 33 -3 43 11
11 26 -10 20 -27z"/>
<path d="M510 5381 c0 -11 6 -22 13 -24 9 -4 8 -8 -3 -16 -13 -9 -13 -11 2
-11 26 0 33 21 12 37 -16 12 -17 15 -4 23 13 8 12 10 -2 10 -11 0 -18 -8 -18
-19z"/>
<path d="M560 5365 c0 -30 3 -35 23 -34 16 1 18 2 5 6 -21 5 -23 19 -5 26 10
4 10 6 0 6 -19 1 -16 19 5 24 13 4 11 5 -5 6 -20 1 -23 -4 -23 -34z"/>
<path d="M610 5365 l0 -36 21 20 c23 21 20 51 -6 51 -11 0 -15 -10 -15 -35z
m25 15 c3 -5 1 -10 -4 -10 -6 0 -11 5 -11 10 0 6 2 10 4 10 3 0 8 -4 11 -10z"/>
<path d="M671 5377 c-16 -41 -15 -42 29 -44 32 -2 40 1 40 15 0 15 2 15 10 2
6 -9 25 -15 50 -15 22 0 40 0 40 1 0 12 -24 64 -30 64 -4 0 -13 -14 -19 -32
-12 -34 -23 -32 -25 4 -2 36 -39 31 -47 -7 -4 -16 -7 -23 -8 -14 0 8 -7 24
-15 35 -14 18 -15 18 -25 -9z m84 3 c3 -5 1 -10 -4 -10 -6 0 -11 5 -11 10 0 6
2 10 4 10 3 0 8 -4 11 -10z"/>
<path d="M852 5384 c-14 -25 -3 -54 21 -54 20 0 20 1 2 14 -19 14 -14 53 5 41
5 -3 10 -1 10 4 0 17 -28 13 -38 -5z"/>
<path d="M907 5393 c-11 -10 -8 -63 3 -63 6 0 10 16 10 35 0 36 -2 40 -13 28z"/>
<path d="M1011 5363 c1 -33 2 -35 8 -13 l7 25 8 -22 c12 -36 26 -27 25 15 -1
32 -2 34 -8 12 l-7 -25 -8 23 c-12 35 -26 26 -25 -15z"/>
<path d="M92 5083 l3 -158 180 0 180 0 3 73 3 72 124 0 c69 0 125 -3 125 -7 0
-3 -8 -15 -17 -25 -13 -14 -14 -21 -5 -30 9 -9 21 -3 50 25 25 24 47 37 65 37
27 0 27 -1 11 -25 -28 -42 -5 -49 37 -10 l39 35 113 0 114 0 12 -39 c22 -75
104 -122 186 -107 46 9 100 62 115 114 45 147 -139 263 -255 161 -18 -16 -39
-46 -45 -64 l-12 -35 -99 0 -100 0 15 22 c33 47 4 53 -39 8 -21 -22 -38 -30
-64 -30 l-34 0 22 23 c18 20 19 26 8 35 -11 9 -21 4 -47 -23 l-34 -35 -143 0
-143 0 0 70 0 70 -185 0 -186 0 3 -157z m348 2 l0 -145 -165 0 -165 0 0 145 0
145 165 0 165 0 0 -145z m910 120 c92 -47 92 -202 1 -250 -41 -21 -109 -19
-148 5 -86 52 -86 188 0 240 38 24 106 26 147 5z"/>
<path d="M557 4863 c-4 -3 -7 -19 -7 -35 0 -26 3 -29 28 -26 20 2 28 9 30 27
5 31 -31 55 -51 34z m36 -39 c-9 -23 -23 -16 -23 12 0 22 2 24 14 14 8 -6 12
-18 9 -26z"/>
<path d="M620 4836 c0 -20 5 -36 10 -36 6 0 10 13 10 29 0 17 -4 33 -10 36 -6
4 -10 -8 -10 -29z"/>
<path d="M651 4854 c-1 -22 24 -62 33 -53 3 3 8 21 11 40 l5 34 -11 -29 -12
-29 -13 29 c-10 24 -13 25 -13 8z"/>
<path d="M714 4856 c-11 -29 0 -51 26 -51 21 0 25 5 25 30 0 24 -5 31 -23 33
-13 2 -24 -3 -28 -12z m43 -12 c8 -21 -13 -42 -28 -27 -13 13 -5 43 11 43 6 0
13 -7 17 -16z"/>
<path d="M787 4864 c-11 -11 -8 -64 3 -64 6 0 10 8 10 17 0 15 2 14 15 -3 14
-18 14 -17 12 16 -2 33 -23 51 -40 34z m28 -14 c3 -5 1 -10 -4 -10 -6 0 -11 5
-11 10 0 6 2 10 4 10 3 0 8 -4 11 -10z"/>
<path d="M850 4855 c-18 -22 -8 -50 20 -52 16 -1 18 0 7 3 -21 6 -20 51 1 47
6 -2 12 2 12 7 0 15 -26 12 -40 -5z"/>
<path d="M900 4836 c0 -20 5 -36 10 -36 6 0 10 13 10 29 0 17 -4 33 -10 36 -6
4 -10 -8 -10 -29z"/>
<path d="M934 4856 c-11 -29 0 -51 26 -51 21 0 25 5 25 30 0 24 -5 31 -23 33
-13 2 -24 -3 -28 -12z m43 -12 c8 -21 -13 -42 -28 -27 -13 13 -5 43 11 43 6 0
13 -7 17 -16z"/>
<path d="M80 4590 l0 -160 183 2 182 3 3 54 3 54 166 -6 c91 -4 249 -7 349 -7
l183 0 16 -29 c22 -43 80 -75 135 -75 94 0 167 81 157 172 -16 147 -199 193
-288 73 l-23 -31 -348 0 -348 0 0 55 0 55 -185 0 -185 0 0 -160z m350 5 l0
-145 -165 0 -165 0 0 145 0 145 165 0 165 0 0 -145z m923 121 c54 -23 80 -59
85 -120 5 -67 -20 -115 -75 -141 -59 -28 -119 -16 -165 34 -33 34 -38 47 -38
86 0 112 97 182 193 141z m-213 -126 c0 -20 -7 -20 -345 -20 -338 0 -345 0
-345 20 0 20 7 20 345 20 338 0 345 0 345 -20z"/>
<path d="M377 4349 c-27 -25 -19 -64 13 -64 30 0 39 34 18 63 -12 18 -14 18
-31 1z m30 -25 c8 -21 -13 -42 -28 -27 -13 13 -5 43 11 43 6 0 13 -7 17 -16z"/>
<path d="M1057 4363 c-11 -11 -8 -83 3 -83 6 0 10 19 8 45 -2 25 -3 45 -4 45
0 0 -4 -3 -7 -7z"/>
<path d="M192 4319 c2 -29 7 -34 28 -34 20 0 26 6 28 28 2 15 -1 27 -7 27 -6
0 -11 -11 -11 -25 0 -14 -4 -25 -10 -25 -5 0 -10 11 -10 24 0 14 -5 28 -11 31
-7 5 -9 -5 -7 -26z"/>
<path d="M261 4313 c1 -33 2 -35 8 -13 l7 25 12 -22 c19 -34 32 -28 32 15 -1
33 -2 35 -14 19 -12 -15 -14 -16 -20 -2 -11 28 -26 15 -25 -22z"/>
<path d="M330 4316 c0 -20 5 -36 10 -36 6 0 10 13 10 29 0 17 -4 33 -10 36 -6
4 -10 -8 -10 -29z"/>
<path d="M431 4313 c1 -33 2 -35 8 -13 l7 25 12 -22 c19 -34 32 -28 32 15 -1
33 -2 35 -14 19 -12 -15 -14 -16 -20 -2 -11 28 -26 15 -25 -22z"/>
<path d="M532 4334 c-14 -25 -3 -54 21 -54 20 0 20 1 2 14 -19 14 -14 53 5 41
5 -3 10 -1 10 4 0 17 -28 13 -38 -5z"/>
<path d="M590 4335 c-16 -20 -9 -49 14 -53 27 -6 48 25 35 49 -12 23 -32 24
-49 4z m37 -29 c-4 -9 -11 -16 -17 -16 -11 0 -14 33 -3 44 11 10 26 -11 20
-28z"/>
<path d="M661 4313 c1 -33 2 -35 8 -13 l7 25 8 -22 c12 -36 26 -27 25 15 -1
32 -2 34 -8 12 l-7 -25 -8 23 c-12 35 -26 26 -25 -15z"/>
<path d="M730 4331 c0 -11 6 -22 13 -24 9 -4 8 -8 -3 -16 -13 -9 -13 -11 2
-11 26 0 33 21 12 37 -16 12 -17 15 -4 23 13 8 12 10 -2 10 -11 0 -18 -8 -18
-19z"/>
<path d="M796 4342 c-3 -5 -10 -20 -15 -34 -9 -23 -7 -25 20 -24 27 1 29 4 24
26 -8 30 -21 45 -29 32z"/>
<path d="M841 4313 c1 -33 2 -35 8 -13 l7 25 12 -22 c19 -34 32 -28 32 15 -1
33 -2 35 -14 19 -12 -15 -14 -16 -20 -2 -11 28 -26 15 -25 -22z"/>
<path d="M922 4341 c-8 -4 -12 -19 -10 -32 2 -18 9 -24 28 -24 26 0 35 25 12
33 -7 2 -10 -2 -6 -12 3 -9 1 -16 -5 -16 -18 0 -26 31 -11 40 7 5 20 6 28 2
10 -3 13 -1 8 6 -8 14 -26 15 -44 3z"/>
<path d="M982 4319 c2 -29 7 -34 28 -34 20 0 26 6 28 28 2 15 -1 27 -7 27 -6
0 -11 -11 -11 -25 0 -14 -4 -25 -10 -25 -5 0 -10 11 -10 24 0 14 -5 28 -11 31
-7 5 -9 -5 -7 -26z"/>
<path d="M1081 4313 c1 -33 2 -35 8 -13 l7 25 12 -22 c19 -34 32 -28 32 15 -1
33 -2 35 -14 19 -12 -15 -14 -16 -20 -2 -11 28 -26 15 -25 -22z"/>
<path d="M1150 4315 l0 -35 54 3 53 2 -9 28 c-14 40 -27 43 -39 8 -10 -29 -39
-44 -39 -21 0 6 6 10 13 10 8 0 7 4 -3 10 -13 9 -13 11 0 20 12 8 11 10 -7 10
-20 0 -23 -5 -23 -35z"/>
<path d="M360 4121 l0 -50 -62 -3 -63 -3 0 -115 0 -115 128 -3 127 -3 0 121 0
120 -55 0 -55 0 0 44 c0 25 -4 48 -10 51 -6 4 -10 -13 -10 -44z m120 -171 l0
-100 -115 0 -115 0 0 100 0 100 115 0 115 0 0 -100z"/>
<path d="M950 4127 c0 -39 -3 -45 -35 -60 -114 -55 -80 -217 47 -217 118 0
156 151 53 211 -32 19 -35 25 -35 65 0 32 -4 44 -15 44 -11 0 -15 -11 -15 -43z
m81 -96 c63 -64 16 -171 -77 -171 -16 0 -39 13 -61 35 -32 32 -35 39 -30 78
12 85 107 118 168 58z"/>
<path d="M268 3814 c-12 -11 -10 -64 2 -64 6 0 10 7 10 15 0 8 5 15 10 15 6 0
10 -7 10 -15 0 -8 5 -15 10 -15 6 0 10 17 10 38 -1 33 -2 35 -14 20 -16 -22
-24 -23 -28 -2 -2 9 -6 12 -10 8z"/>
<path d="M330 3786 c0 -32 3 -36 25 -36 23 0 25 4 23 38 -1 36 -1 36 -5 5 -5
-38 -23 -45 -23 -9 0 14 -4 28 -10 31 -6 4 -10 -8 -10 -29z"/>
<path d="M400 3805 c-16 -20 -9 -49 14 -53 27 -6 48 25 35 49 -12 23 -32 24
-49 4z m37 -29 c-4 -9 -11 -16 -17 -16 -11 0 -14 33 -3 44 11 10 26 -11 20
-28z"/>
<path d="M880 3788 c0 -21 5 -38 10 -38 6 0 10 7 10 15 0 21 18 19 23 -2 3
-10 5 0 5 22 0 22 -2 32 -5 23 -2 -10 -7 -18 -10 -18 -3 0 -12 8 -19 18 -12
15 -13 13 -14 -20z"/>
<path d="M953 3785 c0 -22 2 -30 4 -17 2 12 2 30 0 40 -3 9 -5 -1 -4 -23z"/>
<path d="M986 3808 c-13 -43 -13 -58 0 -58 9 0 14 12 14 35 0 35 -7 46 -14 23z"/>
<path d="M1020 3795 c-14 -38 -13 -40 19 -41 28 -1 28 0 19 28 -14 39 -26 44
-38 13z"/>
<path d="M340 3587 c0 -47 -3 -55 -25 -65 -49 -22 -44 -108 8 -126 61 -22 113
30 91 92 -5 15 -19 31 -32 37 -19 8 -22 18 -22 62 0 29 -4 53 -10 53 -5 0 -10
-24 -10 -53z"/>
<path d="M1110 3544 c0 -67 -2 -75 -15 -64 -22 18 -31 4 -12 -18 15 -17 15
-19 0 -35 -23 -23 -8 -34 17 -12 19 17 21 17 40 0 26 -23 39 -11 16 14 -16 18
-16 20 4 34 14 10 18 17 10 22 -6 4 -17 1 -25 -5 -13 -11 -15 -2 -15 64 0 44
-4 76 -10 76 -6 0 -10 -32 -10 -76z"/>
<path d="M561 3399 c-6 -18 -11 -32 -11 -33 0 -1 14 -1 30 -1 17 0 30 0 30 1
0 12 -24 64 -30 64 -4 0 -13 -14 -19 -31z"/>
<path d="M620 3395 c0 -32 3 -36 23 -33 17 2 22 10 22 33 0 23 -5 31 -22 33
-20 3 -23 -1 -23 -33z"/>
<path d="M684 3416 c-11 -29 0 -51 26 -51 21 0 25 5 25 30 0 24 -5 31 -23 33
-13 2 -24 -3 -28 -12z m43 -12 c8 -21 -13 -42 -28 -27 -13 13 -5 43 11 43 6 0
13 -7 17 -16z"/>
<path d="M750 3396 c0 -20 5 -36 10 -36 6 0 10 8 10 17 0 15 2 15 14 -2 13
-18 14 -17 12 15 -1 28 -6 36 -24 38 -19 3 -22 -1 -22 -32z"/>
<path d="M818 3395 c2 -19 8 -35 12 -35 4 0 10 16 12 35 3 27 0 35 -12 35 -12
0 -15 -8 -12 -35z"/>
<path d="M864 3416 c-11 -29 0 -51 26 -51 21 0 25 5 25 30 0 24 -5 31 -23 33
-13 2 -24 -3 -28 -12z m43 -12 c8 -21 -13 -42 -28 -27 -13 13 -5 43 11 43 6 0
13 -7 17 -16z"/>
<path d="M460 3301 c-5 -11 -14 -31 -19 -44 -9 -22 -7 -24 20 -23 27 1 29 4
23 26 -4 14 -7 33 -8 43 0 22 -3 21 -16 -2z"/>
<path d="M90 3265 c0 -30 3 -35 23 -35 18 0 19 2 7 10 -12 8 -13 11 -1 19 11
7 11 9 0 14 -12 4 -11 7 1 16 12 9 11 11 -7 11 -20 0 -23 -5 -23 -35z"/>
<path d="M143 3284 c-4 -10 1 -20 13 -27 17 -10 17 -11 -1 -18 -19 -7 -18 -8
3 -8 23 -1 31 22 11 34 -6 4 -8 13 -5 21 3 8 1 14 -5 14 -5 0 -12 -7 -16 -16z"/>
<path d="M197 3293 c-8 -8 -9 -63 -2 -63 16 0 47 41 42 54 -7 16 -28 21 -40 9z
m28 -12 c3 -5 1 -12 -5 -16 -5 -3 -10 1 -10 9 0 18 6 21 15 7z"/>
<path d="M254 3286 c-11 -29 0 -51 26 -51 21 0 25 5 25 30 0 24 -5 31 -23 33
-13 2 -24 -3 -28 -12z m43 -12 c8 -21 -13 -42 -28 -27 -13 13 -5 43 11 43 6 0
13 -7 17 -16z"/>
<path d="M321 3263 c1 -33 2 -35 8 -13 l7 25 12 -22 c19 -34 32 -28 32 15 -1
33 -2 35 -14 19 -12 -15 -14 -16 -20 -2 -11 28 -26 15 -25 -22z"/>
<path d="M398 3265 c2 -19 8 -35 12 -35 4 0 10 16 12 35 3 27 0 35 -12 35 -12
0 -15 -8 -12 -35z"/>
<path d="M507 3294 c-11 -11 -8 -64 3 -64 6 0 10 10 11 23 l0 22 11 -22 c16
-34 28 -28 27 15 -1 23 -3 29 -6 14 l-4 -22 -17 20 c-10 12 -21 18 -25 14z"/>
<path d="M577 3293 c-4 -3 -7 -19 -7 -35 0 -22 4 -28 23 -28 18 0 19 2 7 10
-12 8 -13 11 -1 19 11 7 11 9 0 14 -12 4 -11 7 1 16 13 9 13 11 -1 11 -9 0
-19 -3 -22 -7z"/>
<path d="M630 3285 c-16 -20 -9 -49 14 -53 27 -6 48 25 35 49 -12 23 -32 24
-49 4z m37 -29 c-4 -9 -11 -16 -17 -16 -11 0 -14 33 -3 44 11 10 26 -11 20
-28z"/>
<path d="M847 3293 c-11 -10 -8 -63 3 -63 6 0 10 16 10 35 0 36 -2 40 -13 28z"/>
<path d="M877 3294 c-11 -11 -8 -64 3 -64 6 0 10 10 11 23 l0 22 11 -22 c16
-34 28 -28 27 15 -1 23 -3 29 -6 14 l-4 -22 -17 20 c-10 12 -21 18 -25 14z"/>
<path d="M947 3293 c-4 -3 -7 -19 -7 -35 0 -26 3 -29 28 -26 20 2 28 9 30 27
5 31 -31 55 -51 34z m36 -39 c-9 -23 -23 -16 -23 12 0 22 2 24 14 14 8 -6 12
-18 9 -26z"/>
<path d="M1012 3269 c2 -29 7 -34 28 -34 20 0 26 6 28 28 2 15 -1 27 -7 27 -6
0 -11 -11 -11 -25 0 -14 -4 -25 -10 -25 -5 0 -10 11 -10 24 0 14 -5 28 -11 31
-7 5 -9 -5 -7 -26z"/>
<path d="M1084 3286 c-11 -28 1 -51 26 -53 25 -3 25 -3 3 7 -25 10 -27 18 -14
39 5 8 14 10 21 6 9 -5 11 -4 6 3 -10 17 -36 15 -42 -2z"/>
<path d="M1143 3265 c0 -22 2 -30 4 -17 2 12 2 30 0 40 -3 9 -5 -1 -4 -23z"/>
<path d="M1170 3264 c0 -31 3 -35 23 -32 41 6 32 67 -10 68 -8 0 -13 -14 -13
-36z m35 1 c0 -10 -6 -20 -12 -22 -8 -3 -13 5 -13 22 0 17 5 25 13 23 6 -3 12
-13 12 -23z"/>
<path d="M1240 3285 c-16 -20 -9 -49 14 -53 27 -6 48 25 35 49 -12 23 -32 24
-49 4z m37 -29 c-4 -9 -11 -16 -17 -16 -11 0 -14 33 -3 44 11 10 26 -11 20
-28z"/>
<path d="M956 3133 c-3 -3 -6 -28 -6 -55 0 -45 -2 -49 -34 -62 -45 -19 -66
-52 -66 -104 0 -37 6 -50 34 -78 28 -28 42 -34 76 -34 34 0 48 6 76 34 29 29
34 41 34 81 0 38 -5 52 -29 76 -16 16 -37 29 -45 29 -13 0 -16 12 -16 54 0 51
-9 74 -24 59z m77 -154 c46 -49 35 -124 -23 -154 -53 -27 -111 -12 -136 36
-30 59 -9 119 50 144 41 18 75 10 109 -26z"/>
<path d="M358 3073 l-3 -58 -57 -3 -58 -3 0 -109 0 -110 125 0 125 0 0 110 0
110 -55 0 -55 0 0 60 c0 77 -18 79 -22 3z m122 -173 l0 -100 -115 0 -115 0 0
100 0 100 115 0 115 0 0 -100z"/>
<path d="M460 3041 c0 -5 10 -11 23 -13 22 -3 22 -6 22 -133 l0 -129 -25 -7
c-23 -6 -22 -7 8 -8 l32 -1 0 144 c0 141 0 144 -22 150 -31 8 -38 7 -38 -3z"/>
<path d="M1050 3040 c0 -5 9 -10 20 -10 19 0 20 -7 20 -115 0 -108 -1 -115
-20 -115 -11 0 -20 -4 -20 -8 0 -5 14 -7 30 -4 l30 4 0 123 c0 119 -1 123 -22
129 -32 8 -38 7 -38 -4z"/>
<path d="M190 2890 l0 -150 33 1 c23 1 26 3 10 6 -23 4 -23 7 -23 143 0 136 0
139 23 143 16 3 13 5 -10 6 l-33 1 0 -150z"/>
<path d="M817 3033 c-4 -3 -7 -62 -7 -130 l0 -123 33 1 c23 1 26 3 10 6 -22 4
-23 8 -23 119 0 107 1 114 20 114 11 0 20 5 20 10 0 11 -43 14 -53 3z"/>
<path d="M300 2609 c0 -27 3 -31 11 -19 8 11 12 12 16 3 8 -22 23 -14 23 12 0
25 -20 37 -20 13 0 -8 -7 -5 -15 6 -14 19 -15 18 -15 -15z"/>
<path d="M362 2610 c0 -19 2 -27 5 -17 2 9 2 25 0 35 -3 9 -5 1 -5 -18z"/>
<path d="M388 2610 c-3 -16 -1 -30 4 -30 4 0 8 14 8 30 0 17 -2 30 -4 30 -2 0
-6 -13 -8 -30z"/>
<path d="M414 2625 c-9 -23 3 -45 25 -45 23 0 35 28 20 46 -15 18 -38 18 -45
-1z m36 -15 c0 -11 -4 -20 -9 -20 -14 0 -23 18 -16 30 10 17 25 11 25 -10z"/>
<path d="M925 2623 c-5 -12 -9 -14 -12 -5 -8 21 -23 13 -23 -13 0 -26 15 -34
23 -12 4 9 8 8 16 -3 8 -12 11 -8 11 18 0 36 -4 40 -15 15z"/>
<path d="M952 2610 c0 -19 2 -27 5 -17 2 9 2 25 0 35 -3 9 -5 1 -5 -18z"/>
<path d="M978 2610 c-3 -16 -1 -30 4 -30 4 0 8 14 8 30 0 17 -2 30 -4 30 -2 0
-6 -13 -8 -30z"/>
<path d="M1010 2616 c-5 -15 -10 -28 -10 -29 0 -1 11 -2 25 -2 20 0 24 4 19
20 -11 35 -23 39 -34 11z"/>
<path d="M140 2506 c-5 -15 -10 -28 -10 -29 0 -1 11 -2 25 -2 20 0 24 4 19 20
-11 35 -23 39 -34 11z"/>
<path d="M190 2500 c0 -22 5 -30 18 -30 10 0 23 5 30 12 9 9 12 9 12 -1 0 -23
45 -8 48 17 4 27 -22 40 -44 22 -11 -10 -18 -10 -26 -2 -21 21 -38 13 -38 -18z
m35 0 c0 -7 -6 -15 -12 -17 -8 -3 -13 4 -13 17 0 13 5 20 13 18 6 -3 12 -11
12 -18z m60 0 c0 -7 -6 -15 -12 -17 -8 -3 -13 4 -13 17 0 13 5 20 13 18 6 -3
12 -11 12 -18z"/>
<path d="M310 2500 l0 -31 21 20 c22 20 19 41 -7 41 -9 0 -14 -11 -14 -30z
m25 10 c3 -5 1 -10 -4 -10 -6 0 -11 5 -11 10 0 6 2 10 4 10 3 0 8 -4 11 -10z"/>
<path d="M369 2498 c5 -30 6 -31 9 -8 2 14 9 28 16 32 7 5 3 8 -10 8 -18 0
-20 -5 -15 -32z"/>
<path d="M402 2503 c-8 -25 -7 -28 14 -28 26 0 26 0 18 33 -8 30 -20 28 -32
-5z"/>
<path d="M457 2524 c-4 -4 -7 -18 -7 -31 0 -20 5 -24 23 -21 16 2 22 10 22 28
0 24 -23 39 -38 24z m25 -36 c-9 -9 -12 -7 -12 12 0 19 3 21 12 12 9 -9 9 -15
0 -24z"/>
<path d="M514 2516 c-9 -24 4 -48 23 -44 12 2 18 12 18 28 0 29 -32 41 -41 16z
m36 -22 c0 -8 -7 -14 -15 -14 -15 0 -21 21 -9 33 10 9 24 -2 24 -19z"/>
<path d="M766 2508 c-8 -33 -8 -33 18 -34 22 -2 23 0 14 27 -12 35 -24 37 -32
7z"/>
<path d="M820 2500 c0 -31 17 -39 37 -19 8 8 13 8 17 0 11 -17 43 -13 50 6 4
9 0 23 -9 32 -12 13 -19 13 -35 4 -12 -8 -21 -9 -25 -3 -14 22 -35 10 -35 -20z
m30 0 c0 -11 -4 -20 -10 -20 -5 0 -10 9 -10 20 0 11 5 20 10 20 6 0 10 -9 10
-20z m60 0 c0 -21 -15 -27 -25 -10 -7 12 2 30 16 30 5 0 9 -9 9 -20z"/>
<path d="M940 2497 l0 -30 25 27 c30 33 33 32 37 -1 3 -28 4 -28 9 4 5 31 5
32 -33 31 -36 0 -38 -2 -38 -31z"/>
<path d="M1030 2506 c-5 -15 -10 -28 -10 -29 0 -1 11 -2 25 -2 20 0 24 4 19
20 -11 35 -23 39 -34 11z"/>
<path d="M1080 2500 c0 -29 1 -29 50 -27 45 2 49 4 44 22 -10 34 -24 42 -31
17 -6 -23 -6 -23 -20 -2 -21 30 -43 25 -43 -10z m35 0 c0 -7 -6 -15 -12 -17
-8 -3 -13 4 -13 17 0 13 5 20 13 18 6 -3 12 -11 12 -18z"/>
<path d="M270 2260 l-105 -150 -57 0 -58 0 0 -115 0 -115 125 0 125 0 0 115 0
115 -56 0 c-31 0 -54 3 -52 8 2 4 19 31 38 60 l35 52 115 -2 114 -3 39 -55 38
-55 -55 -3 -56 -3 0 -114 0 -115 125 0 125 0 0 115 0 115 -60 0 -60 0 -100
150 c-55 83 -104 150 -108 150 -4 -1 -54 -68 -112 -150z m164 60 c25 -38 46
-72 46 -76 0 -5 -182 5 -188 12 -4 3 87 134 92 134 2 0 24 -31 50 -70z m-146
-327 l3 -103 -116 0 -115 0 0 105 0 106 113 -3 112 -3 3 -102z m412 2 l0 -106
-112 3 -113 3 -3 103 -3 102 116 0 115 0 0 -105z"/>
<path d="M1193 2362 c-15 -21 -62 -87 -103 -145 l-75 -107 -57 0 -58 0 0 -115
0 -115 125 0 125 0 0 115 0 115 -55 0 c-30 0 -55 3 -55 6 0 5 161 235 180 257
4 4 49 -56 100 -133 51 -77 91 -142 89 -143 -2 -2 -17 -11 -32 -21 -42 -26
-62 -80 -48 -127 16 -52 53 -79 108 -79 38 0 50 5 79 34 28 28 34 42 34 76 0
34 -6 48 -34 76 -19 19 -43 34 -55 34 -16 0 -45 37 -120 149 -55 82 -105 152
-110 156 -6 3 -23 -12 -38 -33z m-53 -367 l0 -105 -115 0 -115 0 0 105 0 105
115 0 115 0 0 -105z m356 67 c81 -65 39 -182 -65 -182 -19 0 -42 10 -62 28
-25 23 -32 36 -33 71 -1 36 4 47 32 72 38 34 94 39 128 11z"/>
<path d="M221 1846 c-6 -7 -9 -21 -5 -30 8 -20 44 -21 44 -1 0 8 -5 15 -11 15
-5 0 -7 -4 -4 -10 3 -5 1 -10 -4 -10 -18 0 -12 38 7 43 14 4 14 5 1 6 -9 0
-22 -5 -28 -13z"/>
<path d="M277 1853 c-4 -3 -7 -17 -7 -30 0 -17 5 -23 23 -22 12 0 16 3 10 6
-7 2 -13 13 -13 23 0 10 6 21 13 23 8 4 6 6 -4 6 -9 1 -19 -2 -22 -6z"/>
<path d="M321 1828 c0 -26 2 -29 8 -14 7 19 8 19 15 0 7 -19 8 -19 18 1 11 19
11 19 19 0 6 -16 8 -13 8 13 1 37 -16 43 -28 10 l-8 -23 -7 23 c-11 33 -26 27
-25 -10z"/>
<path d="M400 1830 c0 -22 5 -30 18 -30 9 0 13 4 7 8 -5 4 -10 14 -10 22 0 8
5 18 10 22 6 4 2 8 -7 8 -13 0 -18 -8 -18 -30z"/>
<path d="M487 1854 c-4 -4 -7 -16 -7 -26 0 -10 -4 -18 -10 -18 -5 0 -10 9 -10
20 0 11 -4 20 -10 20 -5 0 -10 -11 -10 -25 0 -23 3 -25 43 -22 37 2 42 5 42
27 0 24 -23 39 -38 24z m33 -30 c0 -8 -7 -14 -15 -14 -15 0 -21 21 -9 33 10 9
24 -2 24 -19z"/>
<path d="M545 1850 c-4 -6 -2 -17 5 -24 8 -11 8 -15 -2 -19 -9 -4 -7 -6 4 -6
25 -1 34 20 13 31 -14 8 -15 12 -4 19 9 6 10 9 2 9 -6 0 -15 -5 -18 -10z"/>
<path d="M1031 1828 c0 -28 2 -30 9 -13 12 28 12 45 0 45 -5 0 -10 -15 -9 -32z"/>
<path d="M1067 1840 c-19 -23 -22 -40 -7 -40 6 0 10 6 10 13 0 8 4 7 10 -3 7
-11 10 -7 10 18 0 38 0 38 -23 12z"/>
<path d="M1110 1830 c0 -22 5 -30 18 -30 13 0 14 2 4 9 -14 9 -13 32 3 43 6 4
2 8 -7 8 -13 0 -18 -8 -18 -30z"/>
<path d="M1151 1833 c-1 -25 3 -33 17 -33 11 0 13 3 6 8 -7 4 -14 18 -17 32
-4 21 -4 20 -6 -7z"/>
<path d="M1191 1833 c-1 -29 2 -33 24 -33 22 0 25 4 24 33 -2 30 -2 30 -6 5
-2 -16 -10 -28 -18 -28 -8 0 -16 12 -18 28 -4 25 -4 25 -6 -5z"/>
<path d="M1257 1852 c8 -5 9 -13 3 -22 -16 -25 -12 -28 34 -28 49 0 68 20 42
46 -19 19 -46 8 -46 -18 0 -12 -7 -20 -17 -20 -13 0 -14 3 -5 12 18 18 15 38
-5 38 -12 0 -14 -3 -6 -8z m73 -22 c0 -21 -15 -27 -25 -10 -7 12 2 30 16 30 5
0 9 -9 9 -20z"/>
<path d="M1356 1851 c-3 -5 1 -15 10 -22 14 -12 14 -14 -3 -20 -16 -7 -15 -8
5 -8 23 -1 31 22 11 35 -8 4 -7 9 2 15 11 7 10 9 -3 9 -9 0 -19 -4 -22 -9z"/>
<path d="M150 1540 l0 -160 180 0 180 0 0 160 0 160 -180 0 -180 0 0 -160z
m147 108 c-15 -18 -38 -50 -53 -70 l-26 -37 52 -66 c28 -36 53 -65 54 -65 5 0
96 128 96 135 0 3 -20 33 -45 65 -25 32 -45 61 -45 64 0 3 36 6 80 6 l80 0 0
-145 0 -145 -162 2 -163 3 -3 143 -3 142 82 0 82 0 -26 -32z m66 -47 c20 -26
37 -53 37 -58 0 -12 -70 -103 -79 -103 -4 0 -24 23 -45 51 l-38 51 23 32 c12
17 30 41 38 53 9 12 18 23 21 23 3 0 23 -22 43 -49z"/>
<path d="M1076 1690 c-61 -19 -106 -83 -106 -152 0 -184 261 -217 310 -40 19
72 -25 157 -97 188 -36 16 -64 16 -107 4z m140 -41 c55 -51 68 -112 38 -175
-33 -70 -142 -101 -201 -58 -92 69 -94 181 -3 242 47 32 127 27 166 -9z"/>
<path d="M1081 1615 c-23 -30 -44 -61 -47 -69 -3 -8 16 -43 44 -80 l50 -66 52
69 51 70 -51 65 c-29 37 -53 66 -55 66 -1 0 -21 -25 -44 -55z m93 -27 l38 -48
-41 -55 c-23 -30 -43 -55 -45 -55 -2 0 -22 24 -44 53 l-40 53 42 56 c22 31 44
53 47 50 3 -4 23 -28 43 -54z"/>
<path d="M190 1335 c0 -19 5 -35 10 -35 10 0 13 11 11 45 -1 19 0 19 7 1 6
-14 11 -16 16 -8 10 17 -2 32 -25 32 -15 0 -19 -7 -19 -35z"/>
<path d="M250 1344 c-15 -38 -14 -39 48 -39 54 0 57 1 60 27 2 19 -2 28 -17
33 -28 9 -41 -1 -41 -33 -1 -27 -1 -27 -15 6 -17 39 -23 40 -35 6z m93 -20
c-9 -23 -23 -16 -23 12 0 22 2 24 14 14 8 -6 12 -18 9 -26z"/>
<path d="M370 1336 c0 -20 5 -36 10 -36 6 0 10 8 10 17 0 15 2 15 14 -2 13
-18 14 -17 12 15 -1 28 -6 36 -24 38 -19 3 -22 -1 -22 -32z"/>
<path d="M430 1335 c0 -30 3 -35 23 -35 18 0 19 2 7 10 -12 8 -13 11 -1 19 11
7 11 9 0 14 -12 4 -11 7 1 16 12 9 11 11 -7 11 -20 0 -23 -5 -23 -35z"/>
<path d="M951 1333 c1 -33 2 -35 8 -13 l7 25 8 -22 c9 -27 23 -30 29 -5 4 16
5 16 6 0 2 -30 21 -20 21 10 0 40 -11 47 -31 21 l-17 -22 -6 21 c-11 35 -26
25 -25 -15z"/>
<path d="M1050 1345 c-14 -38 -13 -40 19 -41 28 -1 28 0 19 28 -14 39 -26 44
-38 13z"/>
<path d="M1110 1334 c0 -31 3 -35 23 -32 41 6 32 67 -10 68 -8 0 -13 -14 -13
-36z m35 1 c0 -10 -6 -20 -12 -22 -8 -3 -13 5 -13 22 0 17 5 25 13 23 6 -3 12
-13 12 -23z"/>
<path d="M1177 1364 c-11 -11 -8 -64 3 -64 6 0 10 8 10 17 0 15 2 14 15 -3 14
-18 14 -17 12 16 -2 33 -23 51 -40 34z m28 -14 c3 -5 1 -10 -4 -10 -6 0 -11 5
-11 10 0 6 2 10 4 10 3 0 8 -4 11 -10z"/>
<path d="M1237 1363 c-4 -3 -7 -19 -7 -35 0 -22 4 -28 23 -28 18 0 19 2 7 10
-12 8 -13 11 -1 19 11 7 11 9 0 14 -12 4 -11 7 1 16 13 9 13 11 -1 11 -9 0
-19 -3 -22 -7z"/>
<path d="M143 1214 c-4 -10 1 -20 13 -27 17 -10 17 -11 -1 -18 -19 -7 -18 -8
3 -8 23 -1 31 22 11 34 -6 4 -8 13 -5 21 3 8 1 14 -5 14 -5 0 -12 -7 -16 -16z"/>
<path d="M194 1216 c-11 -29 0 -51 26 -51 21 0 25 5 25 30 0 24 -5 31 -23 33
-13 2 -24 -3 -28 -12z m43 -12 c8 -21 -13 -42 -28 -27 -13 13 -5 43 11 43 6 0
13 -7 17 -16z"/>
<path d="M268 1224 c-5 -4 -8 -20 -8 -36 0 -22 4 -28 23 -28 13 0 17 3 10 8
-6 4 -13 20 -15 35 -1 16 -6 25 -10 21z"/>
<path d="M308 1195 c2 -19 8 -35 12 -35 4 0 10 16 12 35 3 27 0 35 -12 35 -12
0 -15 -8 -12 -35z"/>
<path d="M357 1223 c-4 -3 -7 -19 -7 -35 0 -22 4 -28 23 -28 18 0 19 2 7 10
-12 8 -13 11 -1 19 11 7 11 9 0 14 -12 4 -11 7 1 16 13 9 13 11 -1 11 -9 0
-19 -3 -22 -7z"/>
<path d="M411 1193 c0 -30 2 -34 9 -18 7 18 8 19 15 3 12 -30 23 -20 16 14 -4
20 -14 34 -24 36 -14 3 -17 -4 -16 -35z m29 17 c0 -5 -4 -10 -10 -10 -5 0 -10
5 -10 10 0 6 5 10 10 10 6 0 10 -4 10 -10z"/>
<path d="M472 1214 c-15 -27 -3 -54 24 -54 28 0 42 25 27 49 -14 23 -40 25
-51 5z m38 -25 c0 -20 -15 -26 -25 -9 -9 15 3 43 15 35 5 -3 10 -15 10 -26z"/>
<path d="M905 1219 c-4 -5 1 -19 10 -29 15 -17 15 -19 -2 -23 -14 -4 -14 -5 5
-6 15 -1 22 5 22 18 0 11 -6 22 -12 24 -10 4 -9 8 2 16 13 9 13 11 -2 11 -9 0
-20 -5 -23 -11z"/>
<path d="M962 1214 c-15 -27 -3 -54 24 -54 28 0 42 25 27 49 -14 23 -40 25
-51 5z m38 -25 c0 -20 -15 -26 -25 -9 -9 15 3 43 15 35 5 -3 10 -15 10 -26z"/>
<path d="M1032 1198 c-2 -34 1 -38 21 -37 15 1 17 3 5 6 -10 2 -18 17 -21 36
-4 31 -4 31 -5 -5z"/>
<path d="M1068 1218 c7 -7 13 -23 13 -37 l2 -26 4 25 c3 14 10 31 15 38 8 9 4
12 -18 12 -22 0 -25 -3 -16 -12z"/>
<path d="M1120 1195 c0 -30 3 -35 23 -34 16 1 18 2 5 6 -21 5 -23 19 -5 26 10
4 10 6 0 6 -19 1 -16 19 5 24 13 4 11 5 -5 6 -20 1 -23 -4 -23 -34z"/>
<path d="M1170 1196 c0 -20 5 -36 10 -36 6 0 10 8 10 18 0 14 2 15 10 2 5 -9
25 -15 48 -16 39 0 40 0 30 28 -14 41 -27 44 -39 8 -12 -33 -24 -32 -24 3 0
15 -7 23 -22 25 -20 3 -23 -1 -23 -32z"/>
<path d="M1077 1007 l-57 -92 111 -3 c61 -1 114 -1 116 2 4 4 -85 153 -106
178 -3 4 -32 -34 -64 -85z m110 -15 l42 -67 -86 -3 c-47 -2 -88 -1 -90 2 -3 3
14 37 38 75 24 39 45 68 48 65 3 -3 24 -35 48 -72z"/>
<path d="M457 1001 c4 -14 -9 -26 -59 -54 -35 -20 -57 -36 -49 -37 7 0 38 14
69 32 50 28 56 30 67 15 11 -15 15 -13 39 23 l26 40 -49 0 c-43 0 -49 -2 -44
-19z"/>
<path d="M90 806 c0 -20 5 -36 10 -36 6 0 10 13 10 29 0 17 -4 33 -10 36 -6 4
-10 -8 -10 -29z"/>
<path d="M121 803 c1 -33 2 -35 8 -13 l7 25 12 -22 c19 -34 32 -28 32 15 -1
33 -2 35 -14 19 -12 -15 -14 -16 -20 -2 -11 28 -26 15 -25 -22z"/>
<path d="M190 805 c0 -19 5 -35 10 -35 6 0 10 7 10 15 0 8 6 15 13 15 8 0 7 4
-3 10 -13 9 -13 11 0 20 12 8 11 10 -7 10 -20 0 -23 -5 -23 -35z"/>
<path d="M244 826 c-11 -29 0 -51 26 -51 21 0 25 5 25 30 0 24 -5 31 -23 33
-13 2 -24 -3 -28 -12z m43 -12 c8 -21 -13 -42 -28 -27 -13 13 -5 43 11 43 6 0
13 -7 17 -16z"/>
<path d="M310 806 c0 -20 5 -36 10 -36 6 0 10 8 10 17 0 15 2 15 14 -2 13 -18
14 -17 12 15 -1 28 -6 36 -24 38 -19 3 -22 -1 -22 -32z"/>
<path d="M371 803 c1 -34 2 -35 9 -13 l8 25 7 -22 c4 -13 11 -23 15 -23 5 0
12 10 16 23 l8 22 7 -25 c6 -22 7 -20 8 13 1 41 -15 50 -28 15 l-8 -22 -12 22
c-18 33 -31 26 -30 -15z"/>
<path d="M486 832 c-3 -5 -10 -20 -15 -34 -9 -23 -7 -25 20 -24 27 1 29 4 24
26 -8 30 -21 45 -29 32z"/>
<path d="M531 803 c1 -33 2 -35 8 -13 l7 25 12 -22 c19 -34 32 -28 32 15 -1
33 -2 35 -14 19 -12 -15 -14 -16 -20 -2 -11 28 -26 15 -25 -22z"/>
<path d="M608 805 c2 -19 8 -35 12 -35 4 0 10 16 12 35 3 27 0 35 -12 35 -12
0 -15 -8 -12 -35z"/>
<path d="M657 833 c-4 -3 -7 -19 -7 -35 0 -22 4 -28 23 -28 18 0 19 2 7 10
-12 8 -13 11 -1 19 11 7 11 9 0 14 -12 4 -11 7 1 16 13 9 13 11 -1 11 -9 0
-19 -3 -22 -7z"/>
<path d="M880 805 c0 -30 3 -35 23 -34 16 1 18 2 5 6 -21 5 -23 19 -5 26 10 4
10 6 0 6 -19 1 -16 19 5 24 13 4 11 5 -5 6 -20 1 -23 -4 -23 -34z"/>
<path d="M931 803 c1 -34 2 -35 9 -13 l8 25 7 -22 c4 -13 11 -23 15 -23 5 0
12 10 16 23 l8 22 7 -25 c6 -22 7 -20 8 13 1 41 -15 50 -28 15 l-8 -22 -12 22
c-18 33 -31 26 -30 -15z"/>
<path d="M1027 834 c-4 -4 -7 -20 -7 -36 0 -23 4 -28 26 -28 23 0 25 3 22 32
-3 31 -25 48 -41 32z m33 -44 c0 -5 -4 -10 -10 -10 -5 0 -10 5 -10 10 0 6 5
10 10 10 6 0 10 -4 10 -10z"/>
<path d="M1091 809 c-6 -18 -11 -32 -11 -33 0 -1 14 -1 30 -1 17 0 30 0 30 1
0 12 -24 64 -30 64 -4 0 -13 -14 -19 -31z"/>
<path d="M1151 803 c0 -30 2 -34 9 -18 7 18 9 18 15 3 5 -13 17 -17 46 -15 37
2 39 4 34 27 -11 42 -24 47 -37 12 -15 -39 -26 -41 -30 -5 -2 17 -10 29 -20
31 -15 3 -18 -4 -17 -35z m29 17 c0 -5 -4 -10 -10 -10 -5 0 -10 5 -10 10 0 6
5 10 10 10 6 0 10 -4 10 -10z"/>
<path d="M1280 830 c12 -8 13 -13 3 -30 -19 -29 -18 -30 40 -27 51 2 52 3 52
32 0 25 -4 30 -25 30 -20 0 -26 -6 -28 -27 -2 -17 -9 -28 -18 -28 -11 0 -12 4
-4 19 15 30 12 41 -12 41 -19 0 -20 -2 -8 -10z m87 -16 c8 -21 -13 -42 -28
-27 -13 13 -5 43 11 43 6 0 13 -7 17 -16z"/>
<path d="M545 640 c-4 -6 -78 -10 -191 -10 l-184 0 0 -152 c0 -143 -1 -153
-22 -177 l-23 -25 27 17 c23 14 55 17 203 17 l175 0 0 147 c0 137 1 148 22
170 12 13 16 23 10 23 -6 0 -14 -4 -17 -10z m-31 -36 c3 -9 6 -74 6 -145 l0
-129 -154 0 c-85 0 -161 3 -170 6 -14 5 -16 27 -16 138 0 73 3 136 7 139 3 4
77 7 164 7 134 0 158 -2 163 -16z"/>
<path d="M360 484 c-74 -63 -142 -122 -150 -131 -34 -36 19 4 140 105 149 125
168 142 155 141 -6 0 -71 -52 -145 -115z"/>
<path d="M121 143 c0 -21 3 -31 6 -23 3 8 11 18 17 22 7 5 6 8 -3 8 -11 0 -11
3 -1 15 10 12 10 15 -4 15 -12 0 -16 -9 -15 -37z"/>
<path d="M176 172 c-3 -5 -10 -20 -15 -34 -9 -23 -7 -25 20 -24 27 1 29 4 24
26 -8 30 -21 45 -29 32z"/>
<path d="M228 174 c-5 -4 -8 -20 -8 -36 0 -22 4 -28 23 -28 13 0 17 3 10 8 -6
4 -13 20 -15 35 -1 16 -6 25 -10 21z"/>
<path d="M270 146 c0 -36 0 -36 43 -36 32 0 39 3 27 11 -12 9 -13 12 -1 16 11
5 11 7 0 14 -12 8 -11 11 1 20 12 8 12 10 -5 7 -13 -2 -21 -12 -23 -31 -4 -34
-22 -36 -22 -3 0 14 -4 28 -10 31 -6 4 -10 -8 -10 -29z"/>
<path d="M372 164 c-14 -25 -3 -54 21 -54 20 0 20 1 2 14 -19 14 -14 53 5 41
5 -3 10 -1 10 4 0 17 -28 13 -38 -5z"/>
<path d="M427 173 c-11 -10 -8 -63 3 -63 6 0 10 16 10 35 0 36 -2 40 -13 28z"/>
<path d="M450 146 c0 -29 4 -36 19 -36 10 0 24 7 32 16 16 20 1 48 -30 52 -18
3 -21 -1 -21 -32z m40 -1 c0 -8 -4 -17 -10 -20 -6 -4 -10 5 -10 20 0 15 4 24
10 20 6 -3 10 -12 10 -20z"/>
<path d="M524 166 c-11 -29 0 -51 26 -51 21 0 25 5 25 30 0 24 -5 31 -23 33
-13 2 -24 -3 -28 -12z m43 -12 c8 -21 -13 -42 -28 -27 -13 13 -5 43 11 43 6 0
13 -7 17 -16z"/>
</g>
</svg>
